<svg xmlns="http://www.w3.org/2000/svg" xmlns:xlink="http://www.w3.org/1999/xlink" xmlns:lucid="lucid" width="2601" height="1275"><g transform="translate(-579.4999999999999 816.5)" lucid:page-tab-id="0_0"><path d="M500-1000h3000V500H500z" fill="#fff"/><path d="M1880 113a6 6 0 0 1 6-6h348a6 6 0 0 1 6 6v186a6 6 0 0 1-6 6h-348a6 6 0 0 1-6-6z" stroke="#3a414a" fill="#fff"/><path d="M1880 149.67h360m-360 64.16h360" stroke="#3a414a" fill="none"/><use xlink:href="#a" transform="matrix(1,0,0,1,1888,115) translate(107.27777777777777 17.944444444444443)"/><use xlink:href="#b" transform="matrix(1,0,0,1,1892,221.83333333333337) translate(0 28.611111111111114)"/><use xlink:href="#c" transform="matrix(1,0,0,1,1892,221.83333333333337) translate(0 55.27777777777778)"/><path d="M1879 206h-143a6 6 0 0 0-6 6v41a6 6 0 0 1-6 6h-113.13" stroke="#3a414a" fill="none"/><path d="M1879.5 206.47h-.5v-.94h.5z" stroke="#3a414a" stroke-width=".05" fill="#3a414a"/><path d="M1581.2 259l14.86-14.85L1611.2 259l-15.14 14.85z" stroke="#3a414a" fill="#3a414a"/><path d="M1219 259h-123a6 6 0 0 1-6-6v-41a6 6 0 0 0-6-6h-93.13" stroke="#3a414a" fill="none"/><path d="M1219.5 259.48h-.5v-.96h.5z" stroke="#3a414a" stroke-width=".05" fill="#3a414a"/><path d="M961.2 206l14.86-14.85L991.2 206l-15.14 14.85z" stroke="#3a414a" fill="#3a414a"/><path d="M1400 122V-90.5" stroke="#3a414a" fill="none"/><path d="M1400.47 122.5h-.94v-.5h.94z" stroke="#3a414a" stroke-width=".05" fill="#3a414a"/><path d="M1400-112.52L1412.73-91h-25.46z" stroke="#3a414a" fill="#fff"/><path d="M2060 106V55a6 6 0 0 0-6-6h-208a6 6 0 0 1-6-6V14.5" stroke="#3a414a" fill="none"/><path d="M2060.47 106.5h-.94v-.5h.94z" stroke="#3a414a" stroke-width=".05" fill="#3a414a"/><path d="M1840-7.52L1852.73 14h-25.46zM2800-20a6 6 0 0 1 6-6h348a6 6 0 0 1 6 6v452a6 6 0 0 1-6 6h-348a6 6 0 0 1-6-6z" stroke="#3a414a" fill="#fff"/><path d="M2800 16.67h360m-360 64.16h360" stroke="#3a414a" fill="none"/><use xlink:href="#d" transform="matrix(1,0,0,1,2808,-18) translate(47.5555555555556 17.944444444444443)"/><use xlink:href="#e" transform="matrix(1,0,0,1,2812,88.83333333333334) translate(0 28.77777777777778)"/><use xlink:href="#f" transform="matrix(1,0,0,1,2812,88.83333333333334) translate(0 55.44444444444445)"/><use xlink:href="#g" transform="matrix(1,0,0,1,2812,88.83333333333334) translate(0 82.11111111111111)"/><use xlink:href="#h" transform="matrix(1,0,0,1,2812,88.83333333333334) translate(0 108.77777777777777)"/><use xlink:href="#i" transform="matrix(1,0,0,1,2812,88.83333333333334) translate(0 135.44444444444446)"/><use xlink:href="#j" transform="matrix(1,0,0,1,2812,88.83333333333334) translate(0 162.11111111111111)"/><use xlink:href="#k" transform="matrix(1,0,0,1,2812,88.83333333333334) translate(0 188.77777777777777)"/><use xlink:href="#l" transform="matrix(1,0,0,1,2812,88.83333333333334) translate(0 215.44444444444443)"/><use xlink:href="#m" transform="matrix(1,0,0,1,2812,88.83333333333334) translate(0 242.1111111111111)"/><use xlink:href="#n" transform="matrix(1,0,0,1,2812,88.83333333333334) translate(0 268.77777777777777)"/><use xlink:href="#o" transform="matrix(1,0,0,1,2812,88.83333333333334) translate(0 295.4444444444444)"/><use xlink:href="#p" transform="matrix(1,0,0,1,2812,88.83333333333334) translate(0 322.1111111111111)"/><path d="M2241 206h528.13" stroke="#3a414a" fill="none"/><path d="M2241 206.47h-.5v-.94h.5z" stroke="#3a414a" stroke-width=".05" fill="#3a414a"/><path d="M2798.8 206l-14.86 14.85L2768.8 206l15.14-14.85z" stroke="#3a414a" fill="#3a414a"/><path d="M2980-27v-194.5" stroke="#3a414a" fill="none"/><path d="M2980.47-26.5h-.94v-.5h.94z" stroke="#3a414a" stroke-width=".05" fill="#3a414a"/><path d="M2980-243.52l12.73 21.52h-25.46zM1660-174a6 6 0 0 1 6-6h348a6 6 0 0 1 6 6v159a6 6 0 0 1-6 6h-348a6 6 0 0 1-6-6z" stroke="#3a414a" fill="#fff"/><path d="M1660-137.33h360m-360 64.16h360" stroke="#3a414a" fill="none"/><use xlink:href="#q" transform="matrix(1,0,0,1,1668,-172) translate(128.85185185185185 17.944444444444443)"/><use xlink:href="#r" transform="matrix(1,0,0,1,1672,-129.33333333333331) translate(0 28.944444444444443)"/><use xlink:href="#s" transform="matrix(1,0,0,1,1672,-129.33333333333331) translate(149.1358024691358 28.944444444444443)"/><path d="M2260-790a6 6 0 0 1 6-6h348a6 6 0 0 1 6 6v191a6 6 0 0 1-6 6h-348a6 6 0 0 1-6-6z" stroke="#3a414a" fill="#fff"/><path d="M2260-736.8h360" stroke="#3a414a" fill="none"/><use xlink:href="#t" transform="matrix(1,0,0,1,2268,-788) translate(113.57499999999999 14.799999999999999)"/><use xlink:href="#u" transform="matrix(1,0,0,1,2268,-788) translate(139.15 36.4)"/><use xlink:href="#v" transform="matrix(1,0,0,1,2272,-728.8) translate(0 68.44444444444444)"/><path d="M2260-410a6 6 0 0 1 6-6h348a6 6 0 0 1 6 6v191a6 6 0 0 1-6 6h-348a6 6 0 0 1-6-6z" stroke="#3a414a" fill="#fff"/><path d="M2260-356.8h360" stroke="#3a414a" fill="none"/><use xlink:href="#t" transform="matrix(1,0,0,1,2268,-408) translate(113.57499999999999 14.799999999999999)"/><use xlink:href="#w" transform="matrix(1,0,0,1,2268,-408) translate(116.725 36.4)"/><path d="M2240-350a6 6 0 0 1 6-6h348a6 6 0 0 1 6 6v191a6 6 0 0 1-6 6h-348a6 6 0 0 1-6-6z" stroke="#3a414a" fill="#fff"/><path d="M2240-296.8h360" stroke="#3a414a" fill="none"/><use xlink:href="#t" transform="matrix(1,0,0,1,2248,-348) translate(113.57499999999999 14.799999999999999)"/><use xlink:href="#x" transform="matrix(1,0,0,1,2248,-348) translate(117.675 36.4)"/><use xlink:href="#v" transform="matrix(1,0,0,1,2252,-288.8) translate(0 68.44444444444444)"/><path d="M2440-417v-152.5" stroke="#3a414a" fill="none"/><path d="M2440.47-416.5h-.94v-.5h.94z" stroke="#3a414a" stroke-width=".05" fill="#3a414a"/><path d="M2440-591.52l12.73 21.52h-25.46z" stroke="#3a414a" fill="#fff"/><path d="M2060 106v-354.5a6 6 0 0 1 6-6h143.13" stroke="#3a414a" fill="none"/><path d="M2060.47 106.5h-.94v-.5h.94z" stroke="#3a414a" stroke-width=".05" fill="#3a414a"/><path d="M2238.8-254.5l-14.86 14.85-15.15-14.85 15.14-14.85z" stroke="#3a414a" fill="#3a414a"/><path d="M2060 106v-479.33a6 6 0 0 1 6-6h163.13" stroke="#3a414a" fill="none"/><path d="M2060.47 106.5h-.94v-.5h.94z" stroke="#3a414a" stroke-width=".05" fill="#3a414a"/><path d="M2258.8-379.33l-14.86 14.85-15.15-14.85 15.14-14.85z" stroke="#3a414a" fill="#3a414a"/><path d="M2800-410a6 6 0 0 1 6-6h348a6 6 0 0 1 6 6v159a6 6 0 0 1-6 6h-348a6 6 0 0 1-6-6z" stroke="#3a414a" fill="#fff"/><path d="M2800-373.33h360m-360 64.16h360" stroke="#3a414a" fill="none"/><use xlink:href="#y" transform="matrix(1,0,0,1,2808,-408) translate(103.63580246913581 17.944444444444443)"/><use xlink:href="#z" transform="matrix(1,0,0,1,2812,-365.3333333333333) translate(0 28.944444444444443)"/><path d="M1220 129a6 6 0 0 1 6-6h348a6 6 0 0 1 6 6v260a6 6 0 0 1-6 6h-348a6 6 0 0 1-6-6z" stroke="#3a414a" fill="#fff"/><path d="M1220 165.67h360m-360 58.83h360" stroke="#3a414a" fill="none"/><use xlink:href="#A" transform="matrix(1,0,0,1,1228,131) translate(74.68518518518522 17.944444444444443)"/><use xlink:href="#B" transform="matrix(1,0,0,1,1232,173.66666666666669) translate(0 25.055555555555554)"/><use xlink:href="#C" transform="matrix(1,0,0,1,1232,232.5) translate(0 28.611111111111107)"/><use xlink:href="#D" transform="matrix(1,0,0,1,1232,232.5) translate(0 55.27777777777778)"/><use xlink:href="#E" transform="matrix(1,0,0,1,1232,232.5) translate(0 81.94444444444443)"/><use xlink:href="#F" transform="matrix(1,0,0,1,1232,232.5) translate(0 108.61111111111111)"/><use xlink:href="#G" transform="matrix(1,0,0,1,1232,232.5) translate(0 135.27777777777777)"/><path d="M780 81V-85.5" stroke="#3a414a" fill="none"/><path d="M780.48 81.5h-.96V81h.96z" stroke="#3a414a" stroke-width=".05" fill="#3a414a"/><path d="M780-107.52L792.73-86h-25.46zM600-274a6 6 0 0 1 6-6h348a6 6 0 0 1 6 6v159a6 6 0 0 1-6 6H606a6 6 0 0 1-6-6z" stroke="#3a414a" fill="#fff"/><path d="M600-237.33h360m-360 64.16h360" stroke="#3a414a" fill="none"/><g><use xlink:href="#y" transform="matrix(1,0,0,1,608,-272) translate(103.63580246913581 17.944444444444443)"/></g><g><use xlink:href="#z" transform="matrix(1,0,0,1,612,-229.33333333333331) translate(0 28.944444444444443)"/></g><path d="M1220-274a6 6 0 0 1 6-6h348a6 6 0 0 1 6 6v154a6 6 0 0 1-6 6h-348a6 6 0 0 1-6-6z" stroke="#3a414a" fill="#fff"/><path d="M1220-237.33h360m-360 58.83h360" stroke="#3a414a" fill="none"/><g><use xlink:href="#H" transform="matrix(1,0,0,1,1228,-272) translate(96.25925925925928 17.944444444444443)"/></g><g><use xlink:href="#I" transform="matrix(1,0,0,1,1232,-229.33333333333331) translate(0 25.055555555555554)"/></g><g><use xlink:href="#J" transform="matrix(1,0,0,1,1232,-170.5) translate(0 28.944444444444443)"/></g><path d="M600 88a6 6 0 0 1 6-6h348a6 6 0 0 1 6 6v236a6 6 0 0 1-6 6H606a6 6 0 0 1-6-6z" stroke="#3a414a" fill="#fff"/><path d="M600 124.67h360m-360 64.16h360" stroke="#3a414a" fill="none"/><g><use xlink:href="#K" transform="matrix(1,0,0,1,607.9999999999999,90) translate(29.098765432098816 17.944444444444443)"/></g><g><use xlink:href="#L" transform="matrix(1,0,0,1,611.9999999999999,196.83333333333334) translate(0 27)"/><use xlink:href="#M" transform="matrix(1,0,0,1,611.9999999999999,196.83333333333334) translate(0 52.77777777777778)"/><use xlink:href="#N" transform="matrix(1,0,0,1,611.9999999999999,196.83333333333334) translate(0 79.44444444444444)"/><use xlink:href="#O" transform="matrix(1,0,0,1,611.9999999999999,196.83333333333334) translate(0 106.11111111111111)"/></g><defs><path fill="#3a414a" d="M185-189c-5-48-123-54-124 2 14 75 158 14 163 119 3 78-121 87-175 55-17-10-28-26-33-46l33-7c5 56 141 63 141-1 0-78-155-14-162-118-5-82 145-84 179-34 5 7 8 16 11 25" id="P"/><path fill="#3a414a" d="M212-179c-10-28-35-45-73-45-59 0-87 40-87 99 0 60 29 101 89 101 43 0 62-24 78-52l27 14C228-24 195 4 139 4 59 4 22-46 18-125c-6-104 99-153 187-111 19 9 31 26 39 46" id="Q"/><path fill="#3a414a" d="M101-251c82-7 93 87 43 132L82-64C71-53 59-42 53-27h129V0H18c2-99 128-94 128-182 0-28-16-43-45-43s-46 15-49 41l-32-3c6-41 34-60 81-64" id="R"/><path fill="#3a414a" d="M205 0l-28-72H64L36 0H1l101-248h38L239 0h-34zm-38-99l-47-123c-12 45-31 82-46 123h93" id="S"/><path fill="#3a414a" d="M117-194c89-4 53 116 60 194h-32v-121c0-31-8-49-39-48C34-167 62-67 57 0H25l-1-190h30c1 10-1 24 2 32 11-22 29-35 61-36" id="T"/><path fill="#3a414a" d="M141-36C126-15 110 5 73 4 37 3 15-17 15-53c-1-64 63-63 125-63 3-35-9-54-41-54-24 1-41 7-42 31l-33-3c5-37 33-52 76-52 45 0 72 20 72 64v82c-1 20 7 32 28 27v20c-31 9-61-2-59-35zM48-53c0 20 12 33 32 33 41-3 63-29 60-74-43 2-92-5-92 41" id="U"/><path fill="#3a414a" d="M24 0v-261h32V0H24" id="V"/><path fill="#3a414a" d="M179-190L93 31C79 59 56 82 12 73V49c39 6 53-20 64-50L1-190h34L92-34l54-156h33" id="W"/><path fill="#3a414a" d="M9 0v-24l116-142H16v-24h144v24L44-24h123V0H9" id="X"/><path fill="#3a414a" d="M100-194c63 0 86 42 84 106H49c0 40 14 67 53 68 26 1 43-12 49-29l28 8c-11 28-37 45-77 45C44 4 14-33 15-96c1-61 26-98 85-98zm52 81c6-60-76-77-97-28-3 7-6 17-6 28h103" id="Y"/><path fill="#3a414a" d="M114-163C36-179 61-72 57 0H25l-1-190h30c1 12-1 29 2 39 6-27 23-49 58-41v29" id="Z"/><g id="a"><use transform="matrix(0.06172839506172839,0,0,0.06172839506172839,0,0)" xlink:href="#P"/><use transform="matrix(0.06172839506172839,0,0,0.06172839506172839,14.814814814814813,0)" xlink:href="#Q"/><use transform="matrix(0.06172839506172839,0,0,0.06172839506172839,30.80246913580247,0)" xlink:href="#R"/><use transform="matrix(0.06172839506172839,0,0,0.06172839506172839,43.148148148148145,0)" xlink:href="#S"/><use transform="matrix(0.06172839506172839,0,0,0.06172839506172839,57.96296296296296,0)" xlink:href="#T"/><use transform="matrix(0.06172839506172839,0,0,0.06172839506172839,70.30864197530865,0)" xlink:href="#U"/><use transform="matrix(0.06172839506172839,0,0,0.06172839506172839,82.65432098765433,0)" xlink:href="#V"/><use transform="matrix(0.06172839506172839,0,0,0.06172839506172839,87.53086419753087,0)" xlink:href="#W"/><use transform="matrix(0.06172839506172839,0,0,0.06172839506172839,98.64197530864199,0)" xlink:href="#X"/><use transform="matrix(0.06172839506172839,0,0,0.06172839506172839,109.7530864197531,0)" xlink:href="#Y"/><use transform="matrix(0.06172839506172839,0,0,0.06172839506172839,122.09876543209879,0)" xlink:href="#Z"/></g><path fill="#3a414a" d="M206 0h-36l-40-164L89 0H53L-1-190h32L70-26l43-164h34l41 164 42-164h31" id="aa"/><path fill="#3a414a" d="M24-231v-30h32v30H24zM24 0v-190h32V0H24" id="ab"/><path fill="#3a414a" d="M59-47c-2 24 18 29 38 22v24C64 9 27 4 27-40v-127H5v-23h24l9-43h21v43h35v23H59v120" id="ac"/><path fill="#3a414a" d="M-5 72V49h209v23H-5" id="ad"/><path fill="#3a414a" d="M115-194c53 0 69 39 70 98 0 66-23 100-70 100C84 3 66-7 56-30L54 0H23l1-261h32v101c10-23 28-34 59-34zm-8 174c40 0 45-34 45-75 0-40-5-75-45-74-42 0-51 32-51 76 0 43 10 73 51 73" id="ae"/><path fill="#3a414a" d="M84 4C-5 8 30-112 23-190h32v120c0 31 7 50 39 49 72-2 45-101 50-169h31l1 190h-30c-1-10 1-25-2-33-11 22-28 36-60 37" id="af"/><path fill="#3a414a" d="M85-194c31 0 48 13 60 33l-1-100h32l1 261h-30c-2-10 0-23-3-31C134-8 116 4 85 4 32 4 16-35 15-94c0-66 23-100 70-100zm9 24c-40 0-46 34-46 75 0 40 6 74 45 74 42 0 51-32 51-76 0-42-9-74-50-73" id="ag"/><path fill="#3a414a" d="M87 75C49 33 22-17 22-94c0-76 28-126 65-167h31c-38 41-64 92-64 168S80 34 118 75H87" id="ah"/><path fill="#3a414a" d="M33-261c38 41 65 92 65 168S71 34 33 75H2C39 34 66-17 66-93S39-220 2-261h31" id="ai"/><path fill="#3a414a" d="M33-154v-36h34v36H33zM33 0v-36h34V0H33" id="aj"/><path fill="#3a414a" d="M96-169c-40 0-48 33-48 73s9 75 48 75c24 0 41-14 43-38l32 2c-6 37-31 61-74 61-59 0-76-41-82-99-10-93 101-131 147-64 4 7 5 14 7 22l-32 3c-4-21-16-35-41-35" id="ak"/><g id="b"><use transform="matrix(0.06172839506172839,0,0,0.06172839506172839,0,0)" xlink:href="#aa"/><use transform="matrix(0.06172839506172839,0,0,0.06172839506172839,15.987654320987653,0)" xlink:href="#ab"/><use transform="matrix(0.06172839506172839,0,0,0.06172839506172839,20.864197530864196,0)" xlink:href="#T"/><use transform="matrix(0.06172839506172839,0,0,0.06172839506172839,33.20987654320987,0)" xlink:href="#Z"/><use transform="matrix(0.06172839506172839,0,0,0.06172839506172839,40.55555555555555,0)" xlink:href="#U"/><use transform="matrix(0.06172839506172839,0,0,0.06172839506172839,52.90123456790123,0)" xlink:href="#ac"/><use transform="matrix(0.06172839506172839,0,0,0.06172839506172839,59.07407407407407,0)" xlink:href="#Y"/><use transform="matrix(0.06172839506172839,0,0,0.06172839506172839,71.41975308641975,0)" xlink:href="#ad"/><use transform="matrix(0.06172839506172839,0,0,0.06172839506172839,83.76543209876543,0)" xlink:href="#ae"/><use transform="matrix(0.06172839506172839,0,0,0.06172839506172839,96.11111111111111,0)" xlink:href="#af"/><use transform="matrix(0.06172839506172839,0,0,0.06172839506172839,108.4567901234568,0)" xlink:href="#ab"/><use transform="matrix(0.06172839506172839,0,0,0.06172839506172839,113.33333333333334,0)" xlink:href="#V"/><use transform="matrix(0.06172839506172839,0,0,0.06172839506172839,118.20987654320989,0)" xlink:href="#ag"/><use transform="matrix(0.06172839506172839,0,0,0.06172839506172839,130.55555555555557,0)" xlink:href="#ah"/><use transform="matrix(0.06172839506172839,0,0,0.06172839506172839,137.90123456790124,0)" xlink:href="#ai"/><use transform="matrix(0.06172839506172839,0,0,0.06172839506172839,145.2469135802469,0)" xlink:href="#aj"/><use transform="matrix(0.06172839506172839,0,0,0.06172839506172839,151.41975308641975,0)" xlink:href="#ag"/><use transform="matrix(0.06172839506172839,0,0,0.06172839506172839,163.76543209876542,0)" xlink:href="#ab"/><use transform="matrix(0.06172839506172839,0,0,0.06172839506172839,168.64197530864195,0)" xlink:href="#ak"/><use transform="matrix(0.06172839506172839,0,0,0.06172839506172839,179.75308641975306,0)" xlink:href="#ac"/></g><g id="c"><use transform="matrix(0.06172839506172839,0,0,0.06172839506172839,0,0)" xlink:href="#aa"/><use transform="matrix(0.06172839506172839,0,0,0.06172839506172839,15.987654320987653,0)" xlink:href="#ab"/><use transform="matrix(0.06172839506172839,0,0,0.06172839506172839,20.864197530864196,0)" xlink:href="#T"/><use transform="matrix(0.06172839506172839,0,0,0.06172839506172839,33.20987654320987,0)" xlink:href="#Z"/><use transform="matrix(0.06172839506172839,0,0,0.06172839506172839,40.55555555555555,0)" xlink:href="#U"/><use transform="matrix(0.06172839506172839,0,0,0.06172839506172839,52.90123456790123,0)" xlink:href="#ac"/><use transform="matrix(0.06172839506172839,0,0,0.06172839506172839,59.07407407407407,0)" xlink:href="#Y"/><use transform="matrix(0.06172839506172839,0,0,0.06172839506172839,71.41975308641975,0)" xlink:href="#ad"/><use transform="matrix(0.06172839506172839,0,0,0.06172839506172839,83.76543209876543,0)" xlink:href="#Z"/><use transform="matrix(0.06172839506172839,0,0,0.06172839506172839,91.11111111111111,0)" xlink:href="#U"/><use transform="matrix(0.06172839506172839,0,0,0.06172839506172839,103.4567901234568,0)" xlink:href="#ak"/><use transform="matrix(0.06172839506172839,0,0,0.06172839506172839,114.56790123456791,0)" xlink:href="#Y"/><use transform="matrix(0.06172839506172839,0,0,0.06172839506172839,126.9135802469136,0)" xlink:href="#ah"/><use transform="matrix(0.06172839506172839,0,0,0.06172839506172839,134.25925925925927,0)" xlink:href="#ai"/><use transform="matrix(0.06172839506172839,0,0,0.06172839506172839,141.60493827160494,0)" xlink:href="#aj"/><use transform="matrix(0.06172839506172839,0,0,0.06172839506172839,147.77777777777777,0)" xlink:href="#ag"/><use transform="matrix(0.06172839506172839,0,0,0.06172839506172839,160.12345679012344,0)" xlink:href="#ab"/><use transform="matrix(0.06172839506172839,0,0,0.06172839506172839,164.99999999999997,0)" xlink:href="#ak"/><use transform="matrix(0.06172839506172839,0,0,0.06172839506172839,176.1111111111111,0)" xlink:href="#ac"/></g><path fill="#3a414a" d="M233-177c-1 41-23 64-60 70L243 0h-38l-65-103H63V0H30v-248c88 3 205-21 203 71zM63-129c60-2 137 13 137-47 0-61-80-42-137-45v92" id="al"/><path fill="#3a414a" d="M115-194c55 1 70 41 70 98S169 2 115 4C84 4 66-9 55-30l1 105H24l-1-265h31l2 30c10-21 28-34 59-34zm-8 174c40 0 45-34 45-75s-6-73-45-74c-42 0-51 32-51 76 0 43 10 73 51 73" id="am"/><path fill="#3a414a" d="M30-248c118-7 216 8 213 122C240-48 200 0 122 0H30v-248zM63-27c89 8 146-16 146-99s-60-101-146-95v194" id="an"/><path fill="#3a414a" d="M108 0H70L1-190h34L89-25l56-165h34" id="ao"/><g id="d"><use transform="matrix(0.06172839506172839,0,0,0.06172839506172839,0,0)" xlink:href="#P"/><use transform="matrix(0.06172839506172839,0,0,0.06172839506172839,14.814814814814813,0)" xlink:href="#Q"/><use transform="matrix(0.06172839506172839,0,0,0.06172839506172839,30.80246913580247,0)" xlink:href="#R"/><use transform="matrix(0.06172839506172839,0,0,0.06172839506172839,43.148148148148145,0)" xlink:href="#al"/><use transform="matrix(0.06172839506172839,0,0,0.06172839506172839,59.1358024691358,0)" xlink:href="#Y"/><use transform="matrix(0.06172839506172839,0,0,0.06172839506172839,71.48148148148148,0)" xlink:href="#am"/><use transform="matrix(0.06172839506172839,0,0,0.06172839506172839,83.82716049382717,0)" xlink:href="#V"/><use transform="matrix(0.06172839506172839,0,0,0.06172839506172839,88.70370370370371,0)" xlink:href="#U"/><use transform="matrix(0.06172839506172839,0,0,0.06172839506172839,101.0493827160494,0)" xlink:href="#W"/><use transform="matrix(0.06172839506172839,0,0,0.06172839506172839,112.16049382716051,0)" xlink:href="#an"/><use transform="matrix(0.06172839506172839,0,0,0.06172839506172839,128.14814814814815,0)" xlink:href="#U"/><use transform="matrix(0.06172839506172839,0,0,0.06172839506172839,140.49382716049382,0)" xlink:href="#ac"/><use transform="matrix(0.06172839506172839,0,0,0.06172839506172839,146.66666666666666,0)" xlink:href="#U"/><use transform="matrix(0.06172839506172839,0,0,0.06172839506172839,159.01234567901233,0)" xlink:href="#al"/><use transform="matrix(0.06172839506172839,0,0,0.06172839506172839,174.99999999999997,0)" xlink:href="#Y"/><use transform="matrix(0.06172839506172839,0,0,0.06172839506172839,187.34567901234564,0)" xlink:href="#ac"/><use transform="matrix(0.06172839506172839,0,0,0.06172839506172839,193.51851851851848,0)" xlink:href="#Z"/><use transform="matrix(0.06172839506172839,0,0,0.06172839506172839,200.86419753086415,0)" xlink:href="#ab"/><use transform="matrix(0.06172839506172839,0,0,0.06172839506172839,205.74074074074068,0)" xlink:href="#Y"/><use transform="matrix(0.06172839506172839,0,0,0.06172839506172839,218.08641975308635,0)" xlink:href="#ao"/><use transform="matrix(0.06172839506172839,0,0,0.06172839506172839,229.19753086419746,0)" xlink:href="#Y"/><use transform="matrix(0.06172839506172839,0,0,0.06172839506172839,241.54320987654313,0)" xlink:href="#Z"/></g><path fill="#3a414a" d="M177-190C167-65 218 103 67 71c-23-6-38-20-44-43l32-5c15 47 100 32 89-28v-30C133-14 115 1 83 1 29 1 15-40 15-95c0-56 16-97 71-98 29-1 48 16 59 35 1-10 0-23 2-32h30zM94-22c36 0 50-32 50-73 0-42-14-75-50-75-39 0-46 34-46 75s6 73 46 73" id="ap"/><g id="e"><use transform="matrix(0.06172839506172839,0,0,0.06172839506172839,0,0)" xlink:href="#ap"/><use transform="matrix(0.06172839506172839,0,0,0.06172839506172839,12.345679012345679,0)" xlink:href="#Y"/><use transform="matrix(0.06172839506172839,0,0,0.06172839506172839,24.691358024691358,0)" xlink:href="#ac"/><use transform="matrix(0.06172839506172839,0,0,0.06172839506172839,30.864197530864196,0)" xlink:href="#ad"/><use transform="matrix(0.06172839506172839,0,0,0.06172839506172839,43.20987654320987,0)" xlink:href="#am"/><use transform="matrix(0.06172839506172839,0,0,0.06172839506172839,55.55555555555555,0)" xlink:href="#V"/><use transform="matrix(0.06172839506172839,0,0,0.06172839506172839,60.432098765432094,0)" xlink:href="#U"/><use transform="matrix(0.06172839506172839,0,0,0.06172839506172839,72.77777777777777,0)" xlink:href="#W"/><use transform="matrix(0.06172839506172839,0,0,0.06172839506172839,83.88888888888889,0)" xlink:href="#Y"/><use transform="matrix(0.06172839506172839,0,0,0.06172839506172839,96.23456790123457,0)" xlink:href="#Z"/><use transform="matrix(0.06172839506172839,0,0,0.06172839506172839,103.58024691358025,0)" xlink:href="#ah"/><use transform="matrix(0.06172839506172839,0,0,0.06172839506172839,110.92592592592594,0)" xlink:href="#ai"/></g><g id="f"><use transform="matrix(0.06172839506172839,0,0,0.06172839506172839,0,0)" xlink:href="#ap"/><use transform="matrix(0.06172839506172839,0,0,0.06172839506172839,12.345679012345679,0)" xlink:href="#Y"/><use transform="matrix(0.06172839506172839,0,0,0.06172839506172839,24.691358024691358,0)" xlink:href="#ac"/><use transform="matrix(0.06172839506172839,0,0,0.06172839506172839,30.864197530864196,0)" xlink:href="#ad"/><use transform="matrix(0.06172839506172839,0,0,0.06172839506172839,43.20987654320987,0)" xlink:href="#am"/><use transform="matrix(0.06172839506172839,0,0,0.06172839506172839,55.55555555555555,0)" xlink:href="#V"/><use transform="matrix(0.06172839506172839,0,0,0.06172839506172839,60.432098765432094,0)" xlink:href="#U"/><use transform="matrix(0.06172839506172839,0,0,0.06172839506172839,72.77777777777777,0)" xlink:href="#W"/><use transform="matrix(0.06172839506172839,0,0,0.06172839506172839,83.88888888888889,0)" xlink:href="#ah"/><use transform="matrix(0.06172839506172839,0,0,0.06172839506172839,91.23456790123457,0)" xlink:href="#ai"/></g><path fill="#3a414a" d="M210-169c-67 3-38 105-44 169h-31v-121c0-29-5-50-35-48C34-165 62-65 56 0H25l-1-190h30c1 10-1 24 2 32 10-44 99-50 107 0 11-21 27-35 58-36 85-2 47 119 55 194h-31v-121c0-29-5-49-35-48" id="aq"/><g id="g"><use transform="matrix(0.06172839506172839,0,0,0.06172839506172839,0,0)" xlink:href="#ap"/><use transform="matrix(0.06172839506172839,0,0,0.06172839506172839,12.345679012345679,0)" xlink:href="#Y"/><use transform="matrix(0.06172839506172839,0,0,0.06172839506172839,24.691358024691358,0)" xlink:href="#ac"/><use transform="matrix(0.06172839506172839,0,0,0.06172839506172839,30.864197530864196,0)" xlink:href="#ad"/><use transform="matrix(0.06172839506172839,0,0,0.06172839506172839,43.20987654320987,0)" xlink:href="#ap"/><use transform="matrix(0.06172839506172839,0,0,0.06172839506172839,55.55555555555555,0)" xlink:href="#U"/><use transform="matrix(0.06172839506172839,0,0,0.06172839506172839,67.90123456790123,0)" xlink:href="#aq"/><use transform="matrix(0.06172839506172839,0,0,0.06172839506172839,86.35802469135801,0)" xlink:href="#Y"/><use transform="matrix(0.06172839506172839,0,0,0.06172839506172839,98.7037037037037,0)" xlink:href="#ah"/><use transform="matrix(0.06172839506172839,0,0,0.06172839506172839,106.04938271604938,0)" xlink:href="#ai"/></g><path fill="#3a414a" d="M100-194c62-1 85 37 85 99 1 63-27 99-86 99S16-35 15-95c0-66 28-99 85-99zM99-20c44 1 53-31 53-75 0-43-8-75-51-75s-53 32-53 75 10 74 51 75" id="ar"/><path fill="#3a414a" d="M135-143c-3-34-86-38-87 0 15 53 115 12 119 90S17 21 10-45l28-5c4 36 97 45 98 0-10-56-113-15-118-90-4-57 82-63 122-42 12 7 21 19 24 35" id="as"/><g id="h"><use transform="matrix(0.06172839506172839,0,0,0.06172839506172839,0,0)" xlink:href="#ap"/><use transform="matrix(0.06172839506172839,0,0,0.06172839506172839,12.345679012345679,0)" xlink:href="#Y"/><use transform="matrix(0.06172839506172839,0,0,0.06172839506172839,24.691358024691358,0)" xlink:href="#ac"/><use transform="matrix(0.06172839506172839,0,0,0.06172839506172839,30.864197530864196,0)" xlink:href="#ad"/><use transform="matrix(0.06172839506172839,0,0,0.06172839506172839,43.20987654320987,0)" xlink:href="#ak"/><use transform="matrix(0.06172839506172839,0,0,0.06172839506172839,54.32098765432099,0)" xlink:href="#ar"/><use transform="matrix(0.06172839506172839,0,0,0.06172839506172839,66.66666666666667,0)" xlink:href="#aq"/><use transform="matrix(0.06172839506172839,0,0,0.06172839506172839,85.12345679012346,0)" xlink:href="#aq"/><use transform="matrix(0.06172839506172839,0,0,0.06172839506172839,103.58024691358024,0)" xlink:href="#U"/><use transform="matrix(0.06172839506172839,0,0,0.06172839506172839,115.92592592592592,0)" xlink:href="#T"/><use transform="matrix(0.06172839506172839,0,0,0.06172839506172839,128.2716049382716,0)" xlink:href="#ag"/><use transform="matrix(0.06172839506172839,0,0,0.06172839506172839,140.61728395061726,0)" xlink:href="#as"/><use transform="matrix(0.06172839506172839,0,0,0.06172839506172839,151.72839506172838,0)" xlink:href="#ah"/><use transform="matrix(0.06172839506172839,0,0,0.06172839506172839,159.07407407407405,0)" xlink:href="#ai"/></g><g id="i"><use transform="matrix(0.06172839506172839,0,0,0.06172839506172839,0,0)" xlink:href="#ap"/><use transform="matrix(0.06172839506172839,0,0,0.06172839506172839,12.345679012345679,0)" xlink:href="#Y"/><use transform="matrix(0.06172839506172839,0,0,0.06172839506172839,24.691358024691358,0)" xlink:href="#ac"/><use transform="matrix(0.06172839506172839,0,0,0.06172839506172839,30.864197530864196,0)" xlink:href="#ad"/><use transform="matrix(0.06172839506172839,0,0,0.06172839506172839,43.20987654320987,0)" xlink:href="#U"/><use transform="matrix(0.06172839506172839,0,0,0.06172839506172839,55.55555555555555,0)" xlink:href="#V"/><use transform="matrix(0.06172839506172839,0,0,0.06172839506172839,60.432098765432094,0)" xlink:href="#V"/><use transform="matrix(0.06172839506172839,0,0,0.06172839506172839,65.30864197530863,0)" xlink:href="#ad"/><use transform="matrix(0.06172839506172839,0,0,0.06172839506172839,77.65432098765432,0)" xlink:href="#am"/><use transform="matrix(0.06172839506172839,0,0,0.06172839506172839,90,0)" xlink:href="#V"/><use transform="matrix(0.06172839506172839,0,0,0.06172839506172839,94.87654320987654,0)" xlink:href="#U"/><use transform="matrix(0.06172839506172839,0,0,0.06172839506172839,107.22222222222223,0)" xlink:href="#W"/><use transform="matrix(0.06172839506172839,0,0,0.06172839506172839,118.33333333333334,0)" xlink:href="#Y"/><use transform="matrix(0.06172839506172839,0,0,0.06172839506172839,130.679012345679,0)" xlink:href="#Z"/><use transform="matrix(0.06172839506172839,0,0,0.06172839506172839,138.02469135802468,0)" xlink:href="#as"/><use transform="matrix(0.06172839506172839,0,0,0.06172839506172839,149.1358024691358,0)" xlink:href="#ah"/><use transform="matrix(0.06172839506172839,0,0,0.06172839506172839,156.48148148148147,0)" xlink:href="#ai"/></g><g id="j"><use transform="matrix(0.06172839506172839,0,0,0.06172839506172839,0,0)" xlink:href="#ap"/><use transform="matrix(0.06172839506172839,0,0,0.06172839506172839,12.345679012345679,0)" xlink:href="#Y"/><use transform="matrix(0.06172839506172839,0,0,0.06172839506172839,24.691358024691358,0)" xlink:href="#ac"/><use transform="matrix(0.06172839506172839,0,0,0.06172839506172839,30.864197530864196,0)" xlink:href="#ad"/><use transform="matrix(0.06172839506172839,0,0,0.06172839506172839,43.20987654320987,0)" xlink:href="#U"/><use transform="matrix(0.06172839506172839,0,0,0.06172839506172839,55.55555555555555,0)" xlink:href="#V"/><use transform="matrix(0.06172839506172839,0,0,0.06172839506172839,60.432098765432094,0)" xlink:href="#V"/><use transform="matrix(0.06172839506172839,0,0,0.06172839506172839,65.30864197530863,0)" xlink:href="#ad"/><use transform="matrix(0.06172839506172839,0,0,0.06172839506172839,77.65432098765432,0)" xlink:href="#am"/><use transform="matrix(0.06172839506172839,0,0,0.06172839506172839,90,0)" xlink:href="#V"/><use transform="matrix(0.06172839506172839,0,0,0.06172839506172839,94.87654320987654,0)" xlink:href="#U"/><use transform="matrix(0.06172839506172839,0,0,0.06172839506172839,107.22222222222223,0)" xlink:href="#W"/><use transform="matrix(0.06172839506172839,0,0,0.06172839506172839,118.33333333333334,0)" xlink:href="#as"/><use transform="matrix(0.06172839506172839,0,0,0.06172839506172839,129.44444444444446,0)" xlink:href="#ah"/><use transform="matrix(0.06172839506172839,0,0,0.06172839506172839,136.79012345679013,0)" xlink:href="#ai"/></g><g id="k"><use transform="matrix(0.06172839506172839,0,0,0.06172839506172839,0,0)" xlink:href="#ap"/><use transform="matrix(0.06172839506172839,0,0,0.06172839506172839,12.345679012345679,0)" xlink:href="#Y"/><use transform="matrix(0.06172839506172839,0,0,0.06172839506172839,24.691358024691358,0)" xlink:href="#ac"/><use transform="matrix(0.06172839506172839,0,0,0.06172839506172839,30.864197530864196,0)" xlink:href="#ad"/><use transform="matrix(0.06172839506172839,0,0,0.06172839506172839,43.20987654320987,0)" xlink:href="#U"/><use transform="matrix(0.06172839506172839,0,0,0.06172839506172839,55.55555555555555,0)" xlink:href="#V"/><use transform="matrix(0.06172839506172839,0,0,0.06172839506172839,60.432098765432094,0)" xlink:href="#V"/><use transform="matrix(0.06172839506172839,0,0,0.06172839506172839,65.30864197530863,0)" xlink:href="#ad"/><use transform="matrix(0.06172839506172839,0,0,0.06172839506172839,77.65432098765432,0)" xlink:href="#ap"/><use transform="matrix(0.06172839506172839,0,0,0.06172839506172839,90,0)" xlink:href="#U"/><use transform="matrix(0.06172839506172839,0,0,0.06172839506172839,102.34567901234568,0)" xlink:href="#aq"/><use transform="matrix(0.06172839506172839,0,0,0.06172839506172839,120.80246913580247,0)" xlink:href="#Y"/><use transform="matrix(0.06172839506172839,0,0,0.06172839506172839,133.14814814814815,0)" xlink:href="#as"/><use transform="matrix(0.06172839506172839,0,0,0.06172839506172839,144.25925925925927,0)" xlink:href="#ah"/><use transform="matrix(0.06172839506172839,0,0,0.06172839506172839,151.60493827160494,0)" xlink:href="#ai"/></g><g id="l"><use transform="matrix(0.06172839506172839,0,0,0.06172839506172839,0,0)" xlink:href="#ap"/><use transform="matrix(0.06172839506172839,0,0,0.06172839506172839,12.345679012345679,0)" xlink:href="#Y"/><use transform="matrix(0.06172839506172839,0,0,0.06172839506172839,24.691358024691358,0)" xlink:href="#ac"/><use transform="matrix(0.06172839506172839,0,0,0.06172839506172839,30.864197530864196,0)" xlink:href="#ad"/><use transform="matrix(0.06172839506172839,0,0,0.06172839506172839,43.20987654320987,0)" xlink:href="#U"/><use transform="matrix(0.06172839506172839,0,0,0.06172839506172839,55.55555555555555,0)" xlink:href="#V"/><use transform="matrix(0.06172839506172839,0,0,0.06172839506172839,60.432098765432094,0)" xlink:href="#V"/><use transform="matrix(0.06172839506172839,0,0,0.06172839506172839,65.30864197530863,0)" xlink:href="#ad"/><use transform="matrix(0.06172839506172839,0,0,0.06172839506172839,77.65432098765432,0)" xlink:href="#ab"/><use transform="matrix(0.06172839506172839,0,0,0.06172839506172839,82.53086419753086,0)" xlink:href="#as"/><use transform="matrix(0.06172839506172839,0,0,0.06172839506172839,93.64197530864197,0)" xlink:href="#as"/><use transform="matrix(0.06172839506172839,0,0,0.06172839506172839,104.75308641975309,0)" xlink:href="#af"/><use transform="matrix(0.06172839506172839,0,0,0.06172839506172839,117.09876543209877,0)" xlink:href="#Y"/><use transform="matrix(0.06172839506172839,0,0,0.06172839506172839,129.44444444444446,0)" xlink:href="#as"/><use transform="matrix(0.06172839506172839,0,0,0.06172839506172839,140.55555555555557,0)" xlink:href="#ah"/><use transform="matrix(0.06172839506172839,0,0,0.06172839506172839,147.90123456790124,0)" xlink:href="#ai"/></g><g id="m"><use transform="matrix(0.06172839506172839,0,0,0.06172839506172839,0,0)" xlink:href="#ap"/><use transform="matrix(0.06172839506172839,0,0,0.06172839506172839,12.345679012345679,0)" xlink:href="#Y"/><use transform="matrix(0.06172839506172839,0,0,0.06172839506172839,24.691358024691358,0)" xlink:href="#ac"/><use transform="matrix(0.06172839506172839,0,0,0.06172839506172839,30.864197530864196,0)" xlink:href="#ad"/><use transform="matrix(0.06172839506172839,0,0,0.06172839506172839,43.20987654320987,0)" xlink:href="#U"/><use transform="matrix(0.06172839506172839,0,0,0.06172839506172839,55.55555555555555,0)" xlink:href="#V"/><use transform="matrix(0.06172839506172839,0,0,0.06172839506172839,60.432098765432094,0)" xlink:href="#V"/><use transform="matrix(0.06172839506172839,0,0,0.06172839506172839,65.30864197530863,0)" xlink:href="#ad"/><use transform="matrix(0.06172839506172839,0,0,0.06172839506172839,77.65432098765432,0)" xlink:href="#ak"/><use transform="matrix(0.06172839506172839,0,0,0.06172839506172839,88.76543209876543,0)" xlink:href="#ar"/><use transform="matrix(0.06172839506172839,0,0,0.06172839506172839,101.11111111111111,0)" xlink:href="#aq"/><use transform="matrix(0.06172839506172839,0,0,0.06172839506172839,119.5679012345679,0)" xlink:href="#aq"/><use transform="matrix(0.06172839506172839,0,0,0.06172839506172839,138.02469135802468,0)" xlink:href="#U"/><use transform="matrix(0.06172839506172839,0,0,0.06172839506172839,150.37037037037035,0)" xlink:href="#T"/><use transform="matrix(0.06172839506172839,0,0,0.06172839506172839,162.71604938271602,0)" xlink:href="#ag"/><use transform="matrix(0.06172839506172839,0,0,0.06172839506172839,175.0617283950617,0)" xlink:href="#as"/><use transform="matrix(0.06172839506172839,0,0,0.06172839506172839,186.1728395061728,0)" xlink:href="#ah"/><use transform="matrix(0.06172839506172839,0,0,0.06172839506172839,193.51851851851848,0)" xlink:href="#ai"/></g><g id="n"><use transform="matrix(0.06172839506172839,0,0,0.06172839506172839,0,0)" xlink:href="#ap"/><use transform="matrix(0.06172839506172839,0,0,0.06172839506172839,12.345679012345679,0)" xlink:href="#Y"/><use transform="matrix(0.06172839506172839,0,0,0.06172839506172839,24.691358024691358,0)" xlink:href="#ac"/><use transform="matrix(0.06172839506172839,0,0,0.06172839506172839,30.864197530864196,0)" xlink:href="#ad"/><use transform="matrix(0.06172839506172839,0,0,0.06172839506172839,43.20987654320987,0)" xlink:href="#am"/><use transform="matrix(0.06172839506172839,0,0,0.06172839506172839,55.55555555555555,0)" xlink:href="#V"/><use transform="matrix(0.06172839506172839,0,0,0.06172839506172839,60.432098765432094,0)" xlink:href="#U"/><use transform="matrix(0.06172839506172839,0,0,0.06172839506172839,72.77777777777777,0)" xlink:href="#W"/><use transform="matrix(0.06172839506172839,0,0,0.06172839506172839,83.88888888888889,0)" xlink:href="#Y"/><use transform="matrix(0.06172839506172839,0,0,0.06172839506172839,96.23456790123457,0)" xlink:href="#Z"/><use transform="matrix(0.06172839506172839,0,0,0.06172839506172839,103.58024691358025,0)" xlink:href="#as"/><use transform="matrix(0.06172839506172839,0,0,0.06172839506172839,114.69135802469137,0)" xlink:href="#ad"/><use transform="matrix(0.06172839506172839,0,0,0.06172839506172839,127.03703703703705,0)" xlink:href="#ab"/><use transform="matrix(0.06172839506172839,0,0,0.06172839506172839,131.9135802469136,0)" xlink:href="#T"/><use transform="matrix(0.06172839506172839,0,0,0.06172839506172839,144.25925925925927,0)" xlink:href="#ad"/><use transform="matrix(0.06172839506172839,0,0,0.06172839506172839,156.60493827160494,0)" xlink:href="#ap"/><use transform="matrix(0.06172839506172839,0,0,0.06172839506172839,168.9506172839506,0)" xlink:href="#U"/><use transform="matrix(0.06172839506172839,0,0,0.06172839506172839,181.29629629629628,0)" xlink:href="#aq"/><use transform="matrix(0.06172839506172839,0,0,0.06172839506172839,199.75308641975306,0)" xlink:href="#Y"/><use transform="matrix(0.06172839506172839,0,0,0.06172839506172839,212.09876543209873,0)" xlink:href="#ah"/><use transform="matrix(0.06172839506172839,0,0,0.06172839506172839,219.4444444444444,0)" xlink:href="#ai"/></g><g id="o"><use transform="matrix(0.06172839506172839,0,0,0.06172839506172839,0,0)" xlink:href="#ap"/><use transform="matrix(0.06172839506172839,0,0,0.06172839506172839,12.345679012345679,0)" xlink:href="#Y"/><use transform="matrix(0.06172839506172839,0,0,0.06172839506172839,24.691358024691358,0)" xlink:href="#ac"/><use transform="matrix(0.06172839506172839,0,0,0.06172839506172839,30.864197530864196,0)" xlink:href="#ad"/><use transform="matrix(0.06172839506172839,0,0,0.06172839506172839,43.20987654320987,0)" xlink:href="#aa"/><use transform="matrix(0.06172839506172839,0,0,0.06172839506172839,59.197530864197525,0)" xlink:href="#ab"/><use transform="matrix(0.06172839506172839,0,0,0.06172839506172839,64.07407407407406,0)" xlink:href="#T"/><use transform="matrix(0.06172839506172839,0,0,0.06172839506172839,76.41975308641975,0)" xlink:href="#T"/><use transform="matrix(0.06172839506172839,0,0,0.06172839506172839,88.76543209876543,0)" xlink:href="#Y"/><use transform="matrix(0.06172839506172839,0,0,0.06172839506172839,101.11111111111111,0)" xlink:href="#Z"/><use transform="matrix(0.06172839506172839,0,0,0.06172839506172839,108.4567901234568,0)" xlink:href="#ah"/><use transform="matrix(0.06172839506172839,0,0,0.06172839506172839,115.80246913580248,0)" xlink:href="#ai"/></g><g id="p"><use transform="matrix(0.06172839506172839,0,0,0.06172839506172839,0,0)" xlink:href="#ap"/><use transform="matrix(0.06172839506172839,0,0,0.06172839506172839,12.345679012345679,0)" xlink:href="#Y"/><use transform="matrix(0.06172839506172839,0,0,0.06172839506172839,24.691358024691358,0)" xlink:href="#ac"/><use transform="matrix(0.06172839506172839,0,0,0.06172839506172839,30.864197530864196,0)" xlink:href="#ad"/><use transform="matrix(0.06172839506172839,0,0,0.06172839506172839,43.20987654320987,0)" xlink:href="#am"/><use transform="matrix(0.06172839506172839,0,0,0.06172839506172839,55.55555555555555,0)" xlink:href="#V"/><use transform="matrix(0.06172839506172839,0,0,0.06172839506172839,60.432098765432094,0)" xlink:href="#U"/><use transform="matrix(0.06172839506172839,0,0,0.06172839506172839,72.77777777777777,0)" xlink:href="#W"/><use transform="matrix(0.06172839506172839,0,0,0.06172839506172839,83.88888888888889,0)" xlink:href="#Y"/><use transform="matrix(0.06172839506172839,0,0,0.06172839506172839,96.23456790123457,0)" xlink:href="#Z"/><use transform="matrix(0.06172839506172839,0,0,0.06172839506172839,103.58024691358025,0)" xlink:href="#ad"/><use transform="matrix(0.06172839506172839,0,0,0.06172839506172839,115.92592592592594,0)" xlink:href="#Z"/><use transform="matrix(0.06172839506172839,0,0,0.06172839506172839,123.27160493827162,0)" xlink:href="#U"/><use transform="matrix(0.06172839506172839,0,0,0.06172839506172839,135.6172839506173,0)" xlink:href="#ak"/><use transform="matrix(0.06172839506172839,0,0,0.06172839506172839,146.7283950617284,0)" xlink:href="#Y"/><use transform="matrix(0.06172839506172839,0,0,0.06172839506172839,159.07407407407408,0)" xlink:href="#ah"/><use transform="matrix(0.06172839506172839,0,0,0.06172839506172839,166.41975308641975,0)" xlink:href="#ai"/></g><g id="q"><use transform="matrix(0.06172839506172839,0,0,0.06172839506172839,0,0)" xlink:href="#S"/><use transform="matrix(0.06172839506172839,0,0,0.06172839506172839,14.814814814814813,0)" xlink:href="#T"/><use transform="matrix(0.06172839506172839,0,0,0.06172839506172839,27.160493827160494,0)" xlink:href="#U"/><use transform="matrix(0.06172839506172839,0,0,0.06172839506172839,39.50617283950617,0)" xlink:href="#V"/><use transform="matrix(0.06172839506172839,0,0,0.06172839506172839,44.382716049382715,0)" xlink:href="#W"/><use transform="matrix(0.06172839506172839,0,0,0.06172839506172839,55.49382716049382,0)" xlink:href="#X"/><use transform="matrix(0.06172839506172839,0,0,0.06172839506172839,66.60493827160494,0)" xlink:href="#Y"/><use transform="matrix(0.06172839506172839,0,0,0.06172839506172839,78.95061728395062,0)" xlink:href="#Z"/></g><g id="r"><use transform="matrix(0.06172839506172839,0,0,0.06172839506172839,0,0)" xlink:href="#ag"/><use transform="matrix(0.06172839506172839,0,0,0.06172839506172839,12.345679012345679,0)" xlink:href="#U"/><use transform="matrix(0.06172839506172839,0,0,0.06172839506172839,24.691358024691358,0)" xlink:href="#ac"/><use transform="matrix(0.06172839506172839,0,0,0.06172839506172839,30.864197530864196,0)" xlink:href="#U"/><use transform="matrix(0.06172839506172839,0,0,0.06172839506172839,43.20987654320987,0)" xlink:href="#ad"/><use transform="matrix(0.06172839506172839,0,0,0.06172839506172839,55.55555555555555,0)" xlink:href="#Z"/><use transform="matrix(0.06172839506172839,0,0,0.06172839506172839,62.90123456790123,0)" xlink:href="#Y"/><use transform="matrix(0.06172839506172839,0,0,0.06172839506172839,75.24691358024691,0)" xlink:href="#ac"/><use transform="matrix(0.06172839506172839,0,0,0.06172839506172839,81.41975308641975,0)" xlink:href="#Z"/><use transform="matrix(0.06172839506172839,0,0,0.06172839506172839,88.76543209876543,0)" xlink:href="#ab"/><use transform="matrix(0.06172839506172839,0,0,0.06172839506172839,93.64197530864197,0)" xlink:href="#Y"/><use transform="matrix(0.06172839506172839,0,0,0.06172839506172839,105.98765432098766,0)" xlink:href="#ao"/><use transform="matrix(0.06172839506172839,0,0,0.06172839506172839,117.09876543209877,0)" xlink:href="#Y"/><use transform="matrix(0.06172839506172839,0,0,0.06172839506172839,129.44444444444446,0)" xlink:href="#Z"/><use transform="matrix(0.06172839506172839,0,0,0.06172839506172839,136.79012345679013,0)" xlink:href="#aj"/></g><g id="s"><use transform="matrix(0.06172839506172839,0,0,0.06172839506172839,0,0)" xlink:href="#an"/><use transform="matrix(0.06172839506172839,0,0,0.06172839506172839,15.987654320987653,0)" xlink:href="#U"/><use transform="matrix(0.06172839506172839,0,0,0.06172839506172839,28.333333333333332,0)" xlink:href="#ac"/><use transform="matrix(0.06172839506172839,0,0,0.06172839506172839,34.50617283950617,0)" xlink:href="#U"/><use transform="matrix(0.06172839506172839,0,0,0.06172839506172839,46.85185185185185,0)" xlink:href="#al"/><use transform="matrix(0.06172839506172839,0,0,0.06172839506172839,62.8395061728395,0)" xlink:href="#Y"/><use transform="matrix(0.06172839506172839,0,0,0.06172839506172839,75.18518518518518,0)" xlink:href="#ac"/><use transform="matrix(0.06172839506172839,0,0,0.06172839506172839,81.35802469135801,0)" xlink:href="#Z"/><use transform="matrix(0.06172839506172839,0,0,0.06172839506172839,88.7037037037037,0)" xlink:href="#ab"/><use transform="matrix(0.06172839506172839,0,0,0.06172839506172839,93.58024691358024,0)" xlink:href="#Y"/><use transform="matrix(0.06172839506172839,0,0,0.06172839506172839,105.92592592592592,0)" xlink:href="#ao"/><use transform="matrix(0.06172839506172839,0,0,0.06172839506172839,117.03703703703704,0)" xlink:href="#Y"/><use transform="matrix(0.06172839506172839,0,0,0.06172839506172839,129.3827160493827,0)" xlink:href="#Z"/></g><path d="M15-91v-56l181-69v40L49-119l147 57v40" id="at"/><path d="M25-224v-37h50v37H25zM25 0v-190h50V0H25" id="au"/><path d="M135-194c87-1 58 113 63 194h-50c-7-57 23-157-34-157-59 0-34 97-39 157H25l-1-190h47c2 12-1 28 3 38 12-26 28-41 61-42" id="av"/><path d="M115-3C79 11 28 4 28-45v-112H4v-33h27l15-45h31v45h36v33H77v99c-1 23 16 31 38 25v30" id="aw"/><path d="M185-48c-13 30-37 53-82 52C43 2 14-33 14-96s30-98 90-98c62 0 83 45 84 108H66c0 31 8 55 39 56 18 0 30-7 34-22zm-45-69c5-46-57-63-70-21-2 6-4 13-4 21h74" id="ax"/><path d="M135-150c-39-12-60 13-60 57V0H25l-1-190h47c2 13-1 29 3 40 6-28 27-53 61-41v41" id="ay"/><path d="M121-226c-27-7-43 5-38 36h38v33H83V0H34v-157H6v-33h28c-9-59 32-81 87-68v32" id="az"/><path d="M133-34C117-15 103 5 69 4 32 3 11-16 11-54c-1-60 55-63 116-61 1-26-3-47-28-47-18 1-26 9-28 27l-52-2c7-38 36-58 82-57s74 22 75 68l1 82c-1 14 12 18 25 15v27c-30 8-71 5-69-32zm-48 3c29 0 43-24 42-57-32 0-66-3-65 30 0 17 8 27 23 27" id="aA"/><path d="M190-63c-7 42-38 67-86 67-59 0-84-38-90-98-12-110 154-137 174-36l-49 2c-2-19-15-32-35-32-30 0-35 28-38 64-6 74 65 87 74 30" id="aB"/><path d="M15-22v-40l146-57-146-57v-40l181 69v56" id="aC"/><g id="t"><use transform="matrix(0.05,0,0,0.05,0,0)" xlink:href="#at"/><use transform="matrix(0.05,0,0,0.05,10.5,0)" xlink:href="#at"/><use transform="matrix(0.05,0,0,0.05,21,0)" xlink:href="#au"/><use transform="matrix(0.05,0,0,0.05,26,0)" xlink:href="#av"/><use transform="matrix(0.05,0,0,0.05,36.95,0)" xlink:href="#aw"/><use transform="matrix(0.05,0,0,0.05,42.900000000000006,0)" xlink:href="#ax"/><use transform="matrix(0.05,0,0,0.05,52.900000000000006,0)" xlink:href="#ay"/><use transform="matrix(0.05,0,0,0.05,59.900000000000006,0)" xlink:href="#az"/><use transform="matrix(0.05,0,0,0.05,65.85000000000001,0)" xlink:href="#aA"/><use transform="matrix(0.05,0,0,0.05,75.85000000000001,0)" xlink:href="#aB"/><use transform="matrix(0.05,0,0,0.05,85.85000000000001,0)" xlink:href="#ax"/><use transform="matrix(0.05,0,0,0.05,95.85000000000001,0)" xlink:href="#aC"/><use transform="matrix(0.05,0,0,0.05,106.35000000000001,0)" xlink:href="#aC"/></g><path d="M275 0h-61l-44-196L126 0H64L0-248h53L97-49l45-199h58l43 199 44-199h52" id="aD"/><g id="u"><use transform="matrix(0.05,0,0,0.05,0,0)" xlink:href="#aD"/><use transform="matrix(0.05,0,0,0.05,16.8,0)" xlink:href="#au"/><use transform="matrix(0.05,0,0,0.05,21.8,0)" xlink:href="#av"/><use transform="matrix(0.05,0,0,0.05,32.75,0)" xlink:href="#ay"/><use transform="matrix(0.05,0,0,0.05,39.75,0)" xlink:href="#aA"/><use transform="matrix(0.05,0,0,0.05,49.75,0)" xlink:href="#aw"/><use transform="matrix(0.05,0,0,0.05,55.7,0)" xlink:href="#ax"/></g><path fill="#3a414a" d="M44-68c0 29 11 47 38 47 30 0 42-19 51-41l28 9C148-21 126 4 82 4 31 4 10-29 12-85c3-77 74-140 146-93 12 8 15 23 18 40l-31 5c-1-22-13-36-36-36-52 0-65 49-65 101" id="aE"/><path fill="#3a414a" d="M165-48c-4 18 1 34 23 27l-3 20c-29 8-62 0-52-35h-2C116-14 99 4 63 4 30 4 8-16 8-49c0-68 71-67 138-67 10-26 0-56-31-54-26 1-42 9-47 31l-32-5c8-67 160-71 144 15-5 28-9 54-15 81zM42-50c3 52 80 24 89-6 7-12 7-24 11-38-47 1-103-4-100 44" id="aF"/><path fill="#3a414a" d="M6 0l50-261h32L37 0H6" id="aG"/><path fill="#3a414a" d="M67 3c-93-2-31-127-26-193h32L48-50c-3 39 53 32 70 12 30-34 30-101 43-152h32L157 0h-30c1-10 6-24 4-33-14 20-29 37-64 36" id="aH"/><path fill="#3a414a" d="M51-54c-9 22 5 41 31 30L79-1C43 14 10-4 19-52l22-115H19l5-23h22l19-43h21l-9 43h35l-4 23H73" id="aI"/><path fill="#3a414a" d="M111-194c62-3 86 47 72 106H45c-7 38 6 69 45 68 27-1 43-14 53-32l24 11C152-15 129 4 87 4 38 3 12-23 12-71c0-70 32-119 99-123zm44 81c14-66-71-72-95-28-4 8-8 17-11 28h106" id="aJ"/><path fill="#3a414a" d="M-28 44V31h207v13H-28" id="aK"/><path fill="#3a414a" d="M248-111c6-24 9-61-24-58-72 9-57 108-77 169h-31l26-142c3-37-50-30-64-10C52-115 50-51 37 0H6l36-190h30c-1 10-6 24-4 32 13-43 101-52 105 5 13-22 29-41 61-41 90 0 28 129 23 194h-31" id="aL"/><path fill="#3a414a" d="M67-158c15-20 31-36 64-36 94 0 33 127 27 194h-32l25-140c3-38-53-32-70-12C52-117 51-51 37 0H6l51-261h31" id="aM"/><path fill="#3a414a" d="M67-162c32-53 139-36 121 50C175-51 163 2 97 4 68 4 52-11 42-31 38 6 28 39 22 75H-9l50-265h29c-1 10 0 20-3 28zm89 36c0-26-10-43-35-43-54 0-67 50-69 103-1 29 14 45 42 46 53 0 62-58 62-106" id="aN"/><path fill="#3a414a" d="M188 0h-37l-8-164L71 0H34L18-190h31l8 164 75-164h34l8 164 74-164h31" id="aO"/><path fill="#3a414a" d="M50-231l6-30h32l-6 30H50zM6 0l37-190h31L37 0H6" id="aP"/><path fill="#3a414a" d="M67-158c22-48 132-52 116 29L158 0h-32l25-140c3-38-53-32-70-12C52-117 51-52 38 0H6l36-190h30" id="aQ"/><path fill="#3a414a" d="M66-151c12-25 30-51 66-40l-6 26C45-176 58-65 38 0H6l36-190h30" id="aR"/><path fill="#3a414a" d="M55-144c13 50 104 24 104 88C159 21 15 23 1-39l26-10c6 40 102 42 102-4-13-50-104-23-104-87 0-71 143-71 148-8l-29 4c-5-35-85-37-89 0" id="aS"/><path fill="#3a414a" d="M17-49c1-102 45-165 103-212h30C92-210 49-145 49-46 49 4 63 43 85 75H54C30 43 18 2 17-49" id="aT"/><path fill="#3a414a" d="M98-137C97-35 54 29-4 75h-31C23 23 67-41 67-140c0-50-15-89-37-121h31c24 32 36 73 37 124" id="aU"/><g id="v"><use transform="matrix(0.06172839506172839,0,0,0.06172839506172839,0,0)" xlink:href="#aE"/><use transform="matrix(0.06172839506172839,0,0,0.06172839506172839,11.11111111111111,0)" xlink:href="#aF"/><use transform="matrix(0.06172839506172839,0,0,0.06172839506172839,23.45679012345679,0)" xlink:href="#aG"/><use transform="matrix(0.06172839506172839,0,0,0.06172839506172839,28.333333333333336,0)" xlink:href="#aE"/><use transform="matrix(0.06172839506172839,0,0,0.06172839506172839,39.44444444444444,0)" xlink:href="#aH"/><use transform="matrix(0.06172839506172839,0,0,0.06172839506172839,51.79012345679012,0)" xlink:href="#aG"/><use transform="matrix(0.06172839506172839,0,0,0.06172839506172839,56.666666666666664,0)" xlink:href="#aF"/><use transform="matrix(0.06172839506172839,0,0,0.06172839506172839,69.01234567901234,0)" xlink:href="#aI"/><use transform="matrix(0.06172839506172839,0,0,0.06172839506172839,75.18518518518518,0)" xlink:href="#aJ"/><use transform="matrix(0.06172839506172839,0,0,0.06172839506172839,87.53086419753086,0)" xlink:href="#aK"/><use transform="matrix(0.06172839506172839,0,0,0.06172839506172839,99.87654320987654,0)" xlink:href="#aL"/><use transform="matrix(0.06172839506172839,0,0,0.06172839506172839,118.33333333333333,0)" xlink:href="#aF"/><use transform="matrix(0.06172839506172839,0,0,0.06172839506172839,130.679012345679,0)" xlink:href="#aI"/><use transform="matrix(0.06172839506172839,0,0,0.06172839506172839,136.85185185185185,0)" xlink:href="#aE"/><use transform="matrix(0.06172839506172839,0,0,0.06172839506172839,147.96296296296296,0)" xlink:href="#aM"/><use transform="matrix(0.06172839506172839,0,0,0.06172839506172839,160.30864197530863,0)" xlink:href="#aH"/><use transform="matrix(0.06172839506172839,0,0,0.06172839506172839,172.6543209876543,0)" xlink:href="#aN"/><use transform="matrix(0.06172839506172839,0,0,0.06172839506172839,184.99999999999997,0)" xlink:href="#aK"/><use transform="matrix(0.06172839506172839,0,0,0.06172839506172839,197.34567901234564,0)" xlink:href="#aO"/><use transform="matrix(0.06172839506172839,0,0,0.06172839506172839,213.3333333333333,0)" xlink:href="#aP"/><use transform="matrix(0.06172839506172839,0,0,0.06172839506172839,218.20987654320982,0)" xlink:href="#aQ"/><use transform="matrix(0.06172839506172839,0,0,0.06172839506172839,230.5555555555555,0)" xlink:href="#aR"/><use transform="matrix(0.06172839506172839,0,0,0.06172839506172839,237.90123456790116,0)" xlink:href="#aF"/><use transform="matrix(0.06172839506172839,0,0,0.06172839506172839,250.24691358024683,0)" xlink:href="#aI"/><use transform="matrix(0.06172839506172839,0,0,0.06172839506172839,256.4197530864197,0)" xlink:href="#aJ"/><use transform="matrix(0.06172839506172839,0,0,0.06172839506172839,268.76543209876536,0)" xlink:href="#aS"/><use transform="matrix(0.06172839506172839,0,0,0.06172839506172839,279.87654320987644,0)" xlink:href="#aT"/><use transform="matrix(0.06172839506172839,0,0,0.06172839506172839,287.2222222222221,0)" xlink:href="#aU"/></g><path d="M182-130c37 4 62 22 62 59C244 23 116-4 24 0v-248c84 5 203-23 205 63 0 31-19 50-47 55zM76-148c40-3 101 13 101-30 0-44-60-28-101-31v61zm0 110c48-3 116 14 116-37 0-48-69-32-116-35v72" id="aV"/><path d="M85 4C-2 5 27-109 22-190h50c7 57-23 150 33 157 60-5 35-97 40-157h50l1 190h-47c-2-12 1-28-3-38-12 25-28 42-61 42" id="aW"/><path d="M25 0v-261h50V0H25" id="aX"/><path d="M88-194c31-1 46 15 58 34l-1-101h50l1 261h-48c-2-10 0-23-3-31C134-8 116 4 84 4 32 4 16-41 15-95c0-56 19-97 73-99zm17 164c33 0 40-30 41-66 1-37-9-64-41-64s-38 30-39 65c0 43 13 65 39 65" id="aY"/><g id="w"><use transform="matrix(0.05,0,0,0.05,0,0)" xlink:href="#aD"/><use transform="matrix(0.05,0,0,0.05,16.8,0)" xlink:href="#au"/><use transform="matrix(0.05,0,0,0.05,21.8,0)" xlink:href="#av"/><use transform="matrix(0.05,0,0,0.05,32.75,0)" xlink:href="#ay"/><use transform="matrix(0.05,0,0,0.05,39.75,0)" xlink:href="#aA"/><use transform="matrix(0.05,0,0,0.05,49.75,0)" xlink:href="#aw"/><use transform="matrix(0.05,0,0,0.05,55.7,0)" xlink:href="#ax"/><use transform="matrix(0.05,0,0,0.05,65.7,0)" xlink:href="#aV"/><use transform="matrix(0.05,0,0,0.05,78.65,0)" xlink:href="#aW"/><use transform="matrix(0.05,0,0,0.05,89.60000000000001,0)" xlink:href="#au"/><use transform="matrix(0.05,0,0,0.05,94.60000000000001,0)" xlink:href="#aX"/><use transform="matrix(0.05,0,0,0.05,99.60000000000001,0)" xlink:href="#aY"/></g><path d="M240-174c0 40-23 61-54 70L253 0h-59l-57-94H76V0H24v-248c93 4 217-23 216 74zM76-134c48-2 112 12 112-38 0-48-66-32-112-35v73" id="aZ"/><g id="x"><use transform="matrix(0.05,0,0,0.05,0,0)" xlink:href="#aD"/><use transform="matrix(0.05,0,0,0.05,16.8,0)" xlink:href="#au"/><use transform="matrix(0.05,0,0,0.05,21.8,0)" xlink:href="#av"/><use transform="matrix(0.05,0,0,0.05,32.75,0)" xlink:href="#ay"/><use transform="matrix(0.05,0,0,0.05,39.75,0)" xlink:href="#aA"/><use transform="matrix(0.05,0,0,0.05,49.75,0)" xlink:href="#aw"/><use transform="matrix(0.05,0,0,0.05,55.7,0)" xlink:href="#ax"/><use transform="matrix(0.05,0,0,0.05,65.7,0)" xlink:href="#aZ"/><use transform="matrix(0.05,0,0,0.05,78.65,0)" xlink:href="#aA"/><use transform="matrix(0.05,0,0,0.05,88.65,0)" xlink:href="#aB"/><use transform="matrix(0.05,0,0,0.05,98.65,0)" xlink:href="#ax"/></g><g id="y"><use transform="matrix(0.06172839506172839,0,0,0.06172839506172839,0,0)" xlink:href="#an"/><use transform="matrix(0.06172839506172839,0,0,0.06172839506172839,15.987654320987653,0)" xlink:href="#U"/><use transform="matrix(0.06172839506172839,0,0,0.06172839506172839,28.333333333333332,0)" xlink:href="#ac"/><use transform="matrix(0.06172839506172839,0,0,0.06172839506172839,34.50617283950617,0)" xlink:href="#U"/><use transform="matrix(0.06172839506172839,0,0,0.06172839506172839,46.85185185185185,0)" xlink:href="#al"/><use transform="matrix(0.06172839506172839,0,0,0.06172839506172839,62.8395061728395,0)" xlink:href="#Y"/><use transform="matrix(0.06172839506172839,0,0,0.06172839506172839,75.18518518518518,0)" xlink:href="#ac"/><use transform="matrix(0.06172839506172839,0,0,0.06172839506172839,81.35802469135801,0)" xlink:href="#Z"/><use transform="matrix(0.06172839506172839,0,0,0.06172839506172839,88.7037037037037,0)" xlink:href="#ab"/><use transform="matrix(0.06172839506172839,0,0,0.06172839506172839,93.58024691358024,0)" xlink:href="#Y"/><use transform="matrix(0.06172839506172839,0,0,0.06172839506172839,105.92592592592592,0)" xlink:href="#ao"/><use transform="matrix(0.06172839506172839,0,0,0.06172839506172839,117.03703703703704,0)" xlink:href="#Y"/><use transform="matrix(0.06172839506172839,0,0,0.06172839506172839,129.3827160493827,0)" xlink:href="#Z"/></g><g id="z"><use transform="matrix(0.06172839506172839,0,0,0.06172839506172839,0,0)" xlink:href="#ag"/><use transform="matrix(0.06172839506172839,0,0,0.06172839506172839,12.345679012345679,0)" xlink:href="#U"/><use transform="matrix(0.06172839506172839,0,0,0.06172839506172839,24.691358024691358,0)" xlink:href="#ac"/><use transform="matrix(0.06172839506172839,0,0,0.06172839506172839,30.864197530864196,0)" xlink:href="#U"/><use transform="matrix(0.06172839506172839,0,0,0.06172839506172839,43.20987654320987,0)" xlink:href="#ae"/><use transform="matrix(0.06172839506172839,0,0,0.06172839506172839,55.55555555555555,0)" xlink:href="#U"/><use transform="matrix(0.06172839506172839,0,0,0.06172839506172839,67.90123456790123,0)" xlink:href="#as"/><use transform="matrix(0.06172839506172839,0,0,0.06172839506172839,79.01234567901234,0)" xlink:href="#Y"/></g><path fill="#3a414a" d="M160-131c35 5 61 23 61 61C221 17 115-2 30 0v-248c76 3 177-17 177 60 0 33-19 50-47 57zm-97-11c50-1 110 9 110-42 0-47-63-36-110-37v79zm0 115c55-2 124 14 124-45 0-56-70-42-124-44v89" id="ba"/><g id="A"><use transform="matrix(0.06172839506172839,0,0,0.06172839506172839,0,0)" xlink:href="#P"/><use transform="matrix(0.06172839506172839,0,0,0.06172839506172839,14.814814814814813,0)" xlink:href="#Q"/><use transform="matrix(0.06172839506172839,0,0,0.06172839506172839,30.80246913580247,0)" xlink:href="#R"/><use transform="matrix(0.06172839506172839,0,0,0.06172839506172839,43.148148148148145,0)" xlink:href="#an"/><use transform="matrix(0.06172839506172839,0,0,0.06172839506172839,59.1358024691358,0)" xlink:href="#Y"/><use transform="matrix(0.06172839506172839,0,0,0.06172839506172839,71.48148148148148,0)" xlink:href="#ac"/><use transform="matrix(0.06172839506172839,0,0,0.06172839506172839,77.65432098765432,0)" xlink:href="#Y"/><use transform="matrix(0.06172839506172839,0,0,0.06172839506172839,90,0)" xlink:href="#Z"/><use transform="matrix(0.06172839506172839,0,0,0.06172839506172839,97.34567901234568,0)" xlink:href="#aq"/><use transform="matrix(0.06172839506172839,0,0,0.06172839506172839,115.80246913580247,0)" xlink:href="#ab"/><use transform="matrix(0.06172839506172839,0,0,0.06172839506172839,120.67901234567901,0)" xlink:href="#T"/><use transform="matrix(0.06172839506172839,0,0,0.06172839506172839,133.02469135802468,0)" xlink:href="#Y"/><use transform="matrix(0.06172839506172839,0,0,0.06172839506172839,145.37037037037035,0)" xlink:href="#ba"/><use transform="matrix(0.06172839506172839,0,0,0.06172839506172839,160.18518518518516,0)" xlink:href="#af"/><use transform="matrix(0.06172839506172839,0,0,0.06172839506172839,172.53086419753083,0)" xlink:href="#ab"/><use transform="matrix(0.06172839506172839,0,0,0.06172839506172839,177.40740740740736,0)" xlink:href="#V"/><use transform="matrix(0.06172839506172839,0,0,0.06172839506172839,182.2839506172839,0)" xlink:href="#ag"/></g><path fill="#3a414a" d="M140-251c81 0 123 46 123 126C263-46 219 4 140 4 59 4 17-45 17-125s42-126 123-126zm0 227c63 0 89-41 89-101s-29-99-89-99c-61 0-89 39-89 99S79-25 140-24" id="bb"/><g id="B"><use transform="matrix(0.0493827160493827,0,0,0.0493827160493827,0,0)" xlink:href="#ag"/><use transform="matrix(0.0493827160493827,0,0,0.0493827160493827,9.876543209876539,0)" xlink:href="#U"/><use transform="matrix(0.0493827160493827,0,0,0.0493827160493827,19.753086419753078,0)" xlink:href="#ac"/><use transform="matrix(0.0493827160493827,0,0,0.0493827160493827,24.691358024691347,0)" xlink:href="#U"/><use transform="matrix(0.0493827160493827,0,0,0.0493827160493827,34.567901234567884,0)" xlink:href="#ad"/><use transform="matrix(0.0493827160493827,0,0,0.0493827160493827,44.44444444444442,0)" xlink:href="#Z"/><use transform="matrix(0.0493827160493827,0,0,0.0493827160493827,50.32098765432096,0)" xlink:href="#Y"/><use transform="matrix(0.0493827160493827,0,0,0.0493827160493827,60.197530864197496,0)" xlink:href="#ac"/><use transform="matrix(0.0493827160493827,0,0,0.0493827160493827,65.13580246913577,0)" xlink:href="#Z"/><use transform="matrix(0.0493827160493827,0,0,0.0493827160493827,71.01234567901231,0)" xlink:href="#ab"/><use transform="matrix(0.0493827160493827,0,0,0.0493827160493827,74.91358024691354,0)" xlink:href="#Y"/><use transform="matrix(0.0493827160493827,0,0,0.0493827160493827,84.79012345679008,0)" xlink:href="#ao"/><use transform="matrix(0.0493827160493827,0,0,0.0493827160493827,93.67901234567897,0)" xlink:href="#Y"/><use transform="matrix(0.0493827160493827,0,0,0.0493827160493827,103.55555555555551,0)" xlink:href="#Z"/><use transform="matrix(0.0493827160493827,0,0,0.0493827160493827,109.43209876543206,0)" xlink:href="#aj"/><use transform="matrix(0.0493827160493827,0,0,0.0493827160493827,114.37037037037034,0)" xlink:href="#P"/><use transform="matrix(0.0493827160493827,0,0,0.0493827160493827,126.22222222222219,0)" xlink:href="#Q"/><use transform="matrix(0.0493827160493827,0,0,0.0493827160493827,139.0123456790123,0)" xlink:href="#R"/><use transform="matrix(0.0493827160493827,0,0,0.0493827160493827,148.88888888888883,0)" xlink:href="#ba"/><use transform="matrix(0.0493827160493827,0,0,0.0493827160493827,160.74074074074068,0)" xlink:href="#af"/><use transform="matrix(0.0493827160493827,0,0,0.0493827160493827,170.6172839506172,0)" xlink:href="#ab"/><use transform="matrix(0.0493827160493827,0,0,0.0493827160493827,174.51851851851845,0)" xlink:href="#V"/><use transform="matrix(0.0493827160493827,0,0,0.0493827160493827,178.4197530864197,0)" xlink:href="#ag"/><use transform="matrix(0.0493827160493827,0,0,0.0493827160493827,188.29629629629622,0)" xlink:href="#bb"/><use transform="matrix(0.0493827160493827,0,0,0.0493827160493827,202.12345679012338,0)" xlink:href="#Z"/><use transform="matrix(0.0493827160493827,0,0,0.0493827160493827,207.99999999999994,0)" xlink:href="#ag"/><use transform="matrix(0.0493827160493827,0,0,0.0493827160493827,217.87654320987642,0)" xlink:href="#Y"/><use transform="matrix(0.0493827160493827,0,0,0.0493827160493827,227.75308641975298,0)" xlink:href="#Z"/><use transform="matrix(0.0493827160493827,0,0,0.0493827160493827,233.6296296296295,0)" xlink:href="#an"/><use transform="matrix(0.0493827160493827,0,0,0.0493827160493827,246.41975308641963,0)" xlink:href="#U"/><use transform="matrix(0.0493827160493827,0,0,0.0493827160493827,256.2962962962962,0)" xlink:href="#ac"/><use transform="matrix(0.0493827160493827,0,0,0.0493827160493827,261.23456790123447,0)" xlink:href="#U"/><use transform="matrix(0.0493827160493827,0,0,0.0493827160493827,271.11111111111103,0)" xlink:href="#al"/><use transform="matrix(0.0493827160493827,0,0,0.0493827160493827,283.90123456790116,0)" xlink:href="#Y"/><use transform="matrix(0.0493827160493827,0,0,0.0493827160493827,293.7777777777777,0)" xlink:href="#ac"/><use transform="matrix(0.0493827160493827,0,0,0.0493827160493827,298.716049382716,0)" xlink:href="#Z"/><use transform="matrix(0.0493827160493827,0,0,0.0493827160493827,304.59259259259255,0)" xlink:href="#ab"/><use transform="matrix(0.0493827160493827,0,0,0.0493827160493827,308.49382716049377,0)" xlink:href="#Y"/><use transform="matrix(0.0493827160493827,0,0,0.0493827160493827,318.3703703703703,0)" xlink:href="#ao"/><use transform="matrix(0.0493827160493827,0,0,0.0493827160493827,327.25925925925924,0)" xlink:href="#Y"/><use transform="matrix(0.0493827160493827,0,0,0.0493827160493827,337.1358024691358,0)" xlink:href="#Z"/></g><path fill="#3a414a" d="M33 0v-38h34V0H33" id="bc"/><g id="C"><use transform="matrix(0.06172839506172839,0,0,0.06172839506172839,0,0)" xlink:href="#ag"/><use transform="matrix(0.06172839506172839,0,0,0.06172839506172839,12.345679012345679,0)" xlink:href="#Y"/><use transform="matrix(0.06172839506172839,0,0,0.06172839506172839,24.691358024691358,0)" xlink:href="#ac"/><use transform="matrix(0.06172839506172839,0,0,0.06172839506172839,30.864197530864196,0)" xlink:href="#Y"/><use transform="matrix(0.06172839506172839,0,0,0.06172839506172839,43.20987654320987,0)" xlink:href="#Z"/><use transform="matrix(0.06172839506172839,0,0,0.06172839506172839,50.55555555555555,0)" xlink:href="#aq"/><use transform="matrix(0.06172839506172839,0,0,0.06172839506172839,69.01234567901234,0)" xlink:href="#ab"/><use transform="matrix(0.06172839506172839,0,0,0.06172839506172839,73.88888888888889,0)" xlink:href="#T"/><use transform="matrix(0.06172839506172839,0,0,0.06172839506172839,86.23456790123457,0)" xlink:href="#Y"/><use transform="matrix(0.06172839506172839,0,0,0.06172839506172839,98.58024691358025,0)" xlink:href="#ad"/><use transform="matrix(0.06172839506172839,0,0,0.06172839506172839,110.92592592592594,0)" xlink:href="#ae"/><use transform="matrix(0.06172839506172839,0,0,0.06172839506172839,123.27160493827162,0)" xlink:href="#af"/><use transform="matrix(0.06172839506172839,0,0,0.06172839506172839,135.6172839506173,0)" xlink:href="#ab"/><use transform="matrix(0.06172839506172839,0,0,0.06172839506172839,140.49382716049382,0)" xlink:href="#V"/><use transform="matrix(0.06172839506172839,0,0,0.06172839506172839,145.37037037037035,0)" xlink:href="#ag"/><use transform="matrix(0.06172839506172839,0,0,0.06172839506172839,157.71604938271602,0)" xlink:href="#ah"/><use transform="matrix(0.06172839506172839,0,0,0.06172839506172839,165.0617283950617,0)" xlink:href="#bc"/><use transform="matrix(0.06172839506172839,0,0,0.06172839506172839,171.23456790123453,0)" xlink:href="#bc"/><use transform="matrix(0.06172839506172839,0,0,0.06172839506172839,177.40740740740736,0)" xlink:href="#bc"/><use transform="matrix(0.06172839506172839,0,0,0.06172839506172839,183.5802469135802,0)" xlink:href="#ai"/></g><g id="D"><use transform="matrix(0.06172839506172839,0,0,0.06172839506172839,0,0)" xlink:href="#ad"/><use transform="matrix(0.06172839506172839,0,0,0.06172839506172839,12.345679012345679,0)" xlink:href="#ad"/><use transform="matrix(0.06172839506172839,0,0,0.06172839506172839,24.691358024691358,0)" xlink:href="#ak"/><use transform="matrix(0.06172839506172839,0,0,0.06172839506172839,35.80246913580247,0)" xlink:href="#ar"/><use transform="matrix(0.06172839506172839,0,0,0.06172839506172839,48.148148148148145,0)" xlink:href="#aq"/><use transform="matrix(0.06172839506172839,0,0,0.06172839506172839,66.60493827160494,0)" xlink:href="#am"/><use transform="matrix(0.06172839506172839,0,0,0.06172839506172839,78.95061728395062,0)" xlink:href="#U"/><use transform="matrix(0.06172839506172839,0,0,0.06172839506172839,91.2962962962963,0)" xlink:href="#Z"/><use transform="matrix(0.06172839506172839,0,0,0.06172839506172839,98.64197530864199,0)" xlink:href="#Y"/><use transform="matrix(0.06172839506172839,0,0,0.06172839506172839,110.98765432098767,0)" xlink:href="#ad"/><use transform="matrix(0.06172839506172839,0,0,0.06172839506172839,123.33333333333336,0)" xlink:href="#ae"/><use transform="matrix(0.06172839506172839,0,0,0.06172839506172839,135.67901234567904,0)" xlink:href="#af"/><use transform="matrix(0.06172839506172839,0,0,0.06172839506172839,148.0246913580247,0)" xlink:href="#ab"/><use transform="matrix(0.06172839506172839,0,0,0.06172839506172839,152.90123456790124,0)" xlink:href="#V"/><use transform="matrix(0.06172839506172839,0,0,0.06172839506172839,157.77777777777777,0)" xlink:href="#ag"/><use transform="matrix(0.06172839506172839,0,0,0.06172839506172839,170.12345679012344,0)" xlink:href="#ad"/><use transform="matrix(0.06172839506172839,0,0,0.06172839506172839,182.4691358024691,0)" xlink:href="#ar"/><use transform="matrix(0.06172839506172839,0,0,0.06172839506172839,194.81481481481478,0)" xlink:href="#Z"/><use transform="matrix(0.06172839506172839,0,0,0.06172839506172839,202.16049382716045,0)" xlink:href="#ag"/><use transform="matrix(0.06172839506172839,0,0,0.06172839506172839,214.50617283950612,0)" xlink:href="#Y"/><use transform="matrix(0.06172839506172839,0,0,0.06172839506172839,226.8518518518518,0)" xlink:href="#Z"/><use transform="matrix(0.06172839506172839,0,0,0.06172839506172839,234.19753086419746,0)" xlink:href="#as"/><use transform="matrix(0.06172839506172839,0,0,0.06172839506172839,245.30864197530857,0)" xlink:href="#ah"/><use transform="matrix(0.06172839506172839,0,0,0.06172839506172839,252.65432098765424,0)" xlink:href="#bc"/><use transform="matrix(0.06172839506172839,0,0,0.06172839506172839,258.8271604938271,0)" xlink:href="#bc"/><use transform="matrix(0.06172839506172839,0,0,0.06172839506172839,264.99999999999994,0)" xlink:href="#bc"/><use transform="matrix(0.06172839506172839,0,0,0.06172839506172839,271.1728395061728,0)" xlink:href="#ai"/></g><path fill="#3a414a" d="M101-234c-31-9-42 10-38 44h38v23H63V0H32v-167H5v-23h27c-7-52 17-82 69-68v24" id="bd"/><g id="E"><use transform="matrix(0.06172839506172839,0,0,0.06172839506172839,0,0)" xlink:href="#ad"/><use transform="matrix(0.06172839506172839,0,0,0.06172839506172839,12.345679012345679,0)" xlink:href="#ad"/><use transform="matrix(0.06172839506172839,0,0,0.06172839506172839,24.691358024691358,0)" xlink:href="#Z"/><use transform="matrix(0.06172839506172839,0,0,0.06172839506172839,32.03703703703704,0)" xlink:href="#Y"/><use transform="matrix(0.06172839506172839,0,0,0.06172839506172839,44.382716049382715,0)" xlink:href="#V"/><use transform="matrix(0.06172839506172839,0,0,0.06172839506172839,49.25925925925926,0)" xlink:href="#U"/><use transform="matrix(0.06172839506172839,0,0,0.06172839506172839,61.60493827160494,0)" xlink:href="#ac"/><use transform="matrix(0.06172839506172839,0,0,0.06172839506172839,67.77777777777777,0)" xlink:href="#ab"/><use transform="matrix(0.06172839506172839,0,0,0.06172839506172839,72.65432098765432,0)" xlink:href="#ao"/><use transform="matrix(0.06172839506172839,0,0,0.06172839506172839,83.76543209876543,0)" xlink:href="#Y"/><use transform="matrix(0.06172839506172839,0,0,0.06172839506172839,96.11111111111111,0)" xlink:href="#ad"/><use transform="matrix(0.06172839506172839,0,0,0.06172839506172839,108.4567901234568,0)" xlink:href="#Y"/><use transform="matrix(0.06172839506172839,0,0,0.06172839506172839,120.80246913580248,0)" xlink:href="#Z"/><use transform="matrix(0.06172839506172839,0,0,0.06172839506172839,128.14814814814815,0)" xlink:href="#Z"/><use transform="matrix(0.06172839506172839,0,0,0.06172839506172839,135.49382716049382,0)" xlink:href="#ar"/><use transform="matrix(0.06172839506172839,0,0,0.06172839506172839,147.8395061728395,0)" xlink:href="#Z"/><use transform="matrix(0.06172839506172839,0,0,0.06172839506172839,155.18518518518516,0)" xlink:href="#ad"/><use transform="matrix(0.06172839506172839,0,0,0.06172839506172839,167.53086419753083,0)" xlink:href="#ar"/><use transform="matrix(0.06172839506172839,0,0,0.06172839506172839,179.8765432098765,0)" xlink:href="#bd"/><use transform="matrix(0.06172839506172839,0,0,0.06172839506172839,186.04938271604934,0)" xlink:href="#ad"/><use transform="matrix(0.06172839506172839,0,0,0.06172839506172839,198.395061728395,0)" xlink:href="#af"/><use transform="matrix(0.06172839506172839,0,0,0.06172839506172839,210.74074074074068,0)" xlink:href="#T"/><use transform="matrix(0.06172839506172839,0,0,0.06172839506172839,223.08641975308635,0)" xlink:href="#ab"/><use transform="matrix(0.06172839506172839,0,0,0.06172839506172839,227.96296296296288,0)" xlink:href="#ac"/><use transform="matrix(0.06172839506172839,0,0,0.06172839506172839,234.1358024691357,0)" xlink:href="#ad"/><use transform="matrix(0.06172839506172839,0,0,0.06172839506172839,246.48148148148138,0)" xlink:href="#ac"/><use transform="matrix(0.06172839506172839,0,0,0.06172839506172839,252.65432098765422,0)" xlink:href="#W"/><use transform="matrix(0.06172839506172839,0,0,0.06172839506172839,263.7654320987653,0)" xlink:href="#am"/><use transform="matrix(0.06172839506172839,0,0,0.06172839506172839,276.111111111111,0)" xlink:href="#Y"/><use transform="matrix(0.06172839506172839,0,0,0.06172839506172839,288.45679012345664,0)" xlink:href="#as"/><use transform="matrix(0.06172839506172839,0,0,0.06172839506172839,299.5679012345677,0)" xlink:href="#ah"/><use transform="matrix(0.06172839506172839,0,0,0.06172839506172839,306.9135802469134,0)" xlink:href="#bc"/><use transform="matrix(0.06172839506172839,0,0,0.06172839506172839,313.08641975308626,0)" xlink:href="#bc"/><use transform="matrix(0.06172839506172839,0,0,0.06172839506172839,319.2592592592591,0)" xlink:href="#bc"/><use transform="matrix(0.06172839506172839,0,0,0.06172839506172839,325.432098765432,0)" xlink:href="#ai"/></g><g id="F"><use transform="matrix(0.06172839506172839,0,0,0.06172839506172839,0,0)" xlink:href="#ad"/><use transform="matrix(0.06172839506172839,0,0,0.06172839506172839,12.345679012345679,0)" xlink:href="#ad"/><use transform="matrix(0.06172839506172839,0,0,0.06172839506172839,24.691358024691358,0)" xlink:href="#V"/><use transform="matrix(0.06172839506172839,0,0,0.06172839506172839,29.5679012345679,0)" xlink:href="#ar"/><use transform="matrix(0.06172839506172839,0,0,0.06172839506172839,41.913580246913575,0)" xlink:href="#U"/><use transform="matrix(0.06172839506172839,0,0,0.06172839506172839,54.25925925925925,0)" xlink:href="#ag"/><use transform="matrix(0.06172839506172839,0,0,0.06172839506172839,66.60493827160494,0)" xlink:href="#ad"/><use transform="matrix(0.06172839506172839,0,0,0.06172839506172839,78.95061728395062,0)" xlink:href="#af"/><use transform="matrix(0.06172839506172839,0,0,0.06172839506172839,91.2962962962963,0)" xlink:href="#T"/><use transform="matrix(0.06172839506172839,0,0,0.06172839506172839,103.64197530864199,0)" xlink:href="#ab"/><use transform="matrix(0.06172839506172839,0,0,0.06172839506172839,108.51851851851853,0)" xlink:href="#ac"/><use transform="matrix(0.06172839506172839,0,0,0.06172839506172839,114.69135802469137,0)" xlink:href="#ad"/><use transform="matrix(0.06172839506172839,0,0,0.06172839506172839,127.03703703703705,0)" xlink:href="#ag"/><use transform="matrix(0.06172839506172839,0,0,0.06172839506172839,139.38271604938274,0)" xlink:href="#ab"/><use transform="matrix(0.06172839506172839,0,0,0.06172839506172839,144.25925925925927,0)" xlink:href="#ak"/><use transform="matrix(0.06172839506172839,0,0,0.06172839506172839,155.37037037037038,0)" xlink:href="#ac"/><use transform="matrix(0.06172839506172839,0,0,0.06172839506172839,161.54320987654322,0)" xlink:href="#ab"/><use transform="matrix(0.06172839506172839,0,0,0.06172839506172839,166.41975308641975,0)" xlink:href="#ar"/><use transform="matrix(0.06172839506172839,0,0,0.06172839506172839,178.76543209876542,0)" xlink:href="#T"/><use transform="matrix(0.06172839506172839,0,0,0.06172839506172839,191.1111111111111,0)" xlink:href="#U"/><use transform="matrix(0.06172839506172839,0,0,0.06172839506172839,203.45679012345676,0)" xlink:href="#Z"/><use transform="matrix(0.06172839506172839,0,0,0.06172839506172839,210.80246913580243,0)" xlink:href="#W"/><use transform="matrix(0.06172839506172839,0,0,0.06172839506172839,221.91358024691354,0)" xlink:href="#ah"/><use transform="matrix(0.06172839506172839,0,0,0.06172839506172839,229.2592592592592,0)" xlink:href="#bc"/><use transform="matrix(0.06172839506172839,0,0,0.06172839506172839,235.43209876543204,0)" xlink:href="#bc"/><use transform="matrix(0.06172839506172839,0,0,0.06172839506172839,241.60493827160488,0)" xlink:href="#bc"/><use transform="matrix(0.06172839506172839,0,0,0.06172839506172839,247.77777777777771,0)" xlink:href="#ai"/></g><g id="G"><use transform="matrix(0.06172839506172839,0,0,0.06172839506172839,0,0)" xlink:href="#ad"/><use transform="matrix(0.06172839506172839,0,0,0.06172839506172839,12.345679012345679,0)" xlink:href="#ad"/><use transform="matrix(0.06172839506172839,0,0,0.06172839506172839,24.691358024691358,0)" xlink:href="#am"/><use transform="matrix(0.06172839506172839,0,0,0.06172839506172839,37.03703703703704,0)" xlink:href="#U"/><use transform="matrix(0.06172839506172839,0,0,0.06172839506172839,49.382716049382715,0)" xlink:href="#ag"/><use transform="matrix(0.06172839506172839,0,0,0.06172839506172839,61.72839506172839,0)" xlink:href="#ad"/><use transform="matrix(0.06172839506172839,0,0,0.06172839506172839,74.07407407407408,0)" xlink:href="#af"/><use transform="matrix(0.06172839506172839,0,0,0.06172839506172839,86.41975308641976,0)" xlink:href="#as"/><use transform="matrix(0.06172839506172839,0,0,0.06172839506172839,97.53086419753087,0)" xlink:href="#Y"/><use transform="matrix(0.06172839506172839,0,0,0.06172839506172839,109.87654320987656,0)" xlink:href="#Z"/><use transform="matrix(0.06172839506172839,0,0,0.06172839506172839,117.22222222222224,0)" xlink:href="#ad"/><use transform="matrix(0.06172839506172839,0,0,0.06172839506172839,129.56790123456793,0)" xlink:href="#af"/><use transform="matrix(0.06172839506172839,0,0,0.06172839506172839,141.9135802469136,0)" xlink:href="#T"/><use transform="matrix(0.06172839506172839,0,0,0.06172839506172839,154.25925925925927,0)" xlink:href="#ab"/><use transform="matrix(0.06172839506172839,0,0,0.06172839506172839,159.1358024691358,0)" xlink:href="#ac"/><use transform="matrix(0.06172839506172839,0,0,0.06172839506172839,165.30864197530863,0)" xlink:href="#ad"/><use transform="matrix(0.06172839506172839,0,0,0.06172839506172839,177.6543209876543,0)" xlink:href="#ag"/><use transform="matrix(0.06172839506172839,0,0,0.06172839506172839,189.99999999999997,0)" xlink:href="#ab"/><use transform="matrix(0.06172839506172839,0,0,0.06172839506172839,194.8765432098765,0)" xlink:href="#ak"/><use transform="matrix(0.06172839506172839,0,0,0.06172839506172839,205.98765432098762,0)" xlink:href="#ac"/><use transform="matrix(0.06172839506172839,0,0,0.06172839506172839,212.16049382716045,0)" xlink:href="#ab"/><use transform="matrix(0.06172839506172839,0,0,0.06172839506172839,217.03703703703698,0)" xlink:href="#ar"/><use transform="matrix(0.06172839506172839,0,0,0.06172839506172839,229.38271604938265,0)" xlink:href="#T"/><use transform="matrix(0.06172839506172839,0,0,0.06172839506172839,241.72839506172832,0)" xlink:href="#U"/><use transform="matrix(0.06172839506172839,0,0,0.06172839506172839,254.074074074074,0)" xlink:href="#Z"/><use transform="matrix(0.06172839506172839,0,0,0.06172839506172839,261.4197530864197,0)" xlink:href="#W"/><use transform="matrix(0.06172839506172839,0,0,0.06172839506172839,272.5308641975308,0)" xlink:href="#ah"/><use transform="matrix(0.06172839506172839,0,0,0.06172839506172839,279.87654320987644,0)" xlink:href="#bc"/><use transform="matrix(0.06172839506172839,0,0,0.06172839506172839,286.0493827160493,0)" xlink:href="#bc"/><use transform="matrix(0.06172839506172839,0,0,0.06172839506172839,292.2222222222222,0)" xlink:href="#bc"/><use transform="matrix(0.06172839506172839,0,0,0.06172839506172839,298.39506172839504,0)" xlink:href="#ai"/></g><g id="H"><use transform="matrix(0.06172839506172839,0,0,0.06172839506172839,0,0)" xlink:href="#an"/><use transform="matrix(0.06172839506172839,0,0,0.06172839506172839,15.987654320987653,0)" xlink:href="#Y"/><use transform="matrix(0.06172839506172839,0,0,0.06172839506172839,28.333333333333332,0)" xlink:href="#ac"/><use transform="matrix(0.06172839506172839,0,0,0.06172839506172839,34.50617283950617,0)" xlink:href="#Y"/><use transform="matrix(0.06172839506172839,0,0,0.06172839506172839,46.85185185185185,0)" xlink:href="#Z"/><use transform="matrix(0.06172839506172839,0,0,0.06172839506172839,54.197530864197525,0)" xlink:href="#aq"/><use transform="matrix(0.06172839506172839,0,0,0.06172839506172839,72.65432098765432,0)" xlink:href="#ab"/><use transform="matrix(0.06172839506172839,0,0,0.06172839506172839,77.53086419753086,0)" xlink:href="#T"/><use transform="matrix(0.06172839506172839,0,0,0.06172839506172839,89.87654320987654,0)" xlink:href="#Y"/><use transform="matrix(0.06172839506172839,0,0,0.06172839506172839,102.22222222222223,0)" xlink:href="#ba"/><use transform="matrix(0.06172839506172839,0,0,0.06172839506172839,117.03703703703704,0)" xlink:href="#af"/><use transform="matrix(0.06172839506172839,0,0,0.06172839506172839,129.3827160493827,0)" xlink:href="#ab"/><use transform="matrix(0.06172839506172839,0,0,0.06172839506172839,134.25925925925924,0)" xlink:href="#V"/><use transform="matrix(0.06172839506172839,0,0,0.06172839506172839,139.13580246913577,0)" xlink:href="#ag"/></g><g id="I"><use transform="matrix(0.0493827160493827,0,0,0.0493827160493827,0,0)" xlink:href="#ag"/><use transform="matrix(0.0493827160493827,0,0,0.0493827160493827,9.876543209876539,0)" xlink:href="#U"/><use transform="matrix(0.0493827160493827,0,0,0.0493827160493827,19.753086419753078,0)" xlink:href="#ac"/><use transform="matrix(0.0493827160493827,0,0,0.0493827160493827,24.691358024691347,0)" xlink:href="#U"/><use transform="matrix(0.0493827160493827,0,0,0.0493827160493827,34.567901234567884,0)" xlink:href="#ad"/><use transform="matrix(0.0493827160493827,0,0,0.0493827160493827,44.44444444444442,0)" xlink:href="#Z"/><use transform="matrix(0.0493827160493827,0,0,0.0493827160493827,50.32098765432096,0)" xlink:href="#Y"/><use transform="matrix(0.0493827160493827,0,0,0.0493827160493827,60.197530864197496,0)" xlink:href="#ac"/><use transform="matrix(0.0493827160493827,0,0,0.0493827160493827,65.13580246913577,0)" xlink:href="#Z"/><use transform="matrix(0.0493827160493827,0,0,0.0493827160493827,71.01234567901231,0)" xlink:href="#ab"/><use transform="matrix(0.0493827160493827,0,0,0.0493827160493827,74.91358024691354,0)" xlink:href="#Y"/><use transform="matrix(0.0493827160493827,0,0,0.0493827160493827,84.79012345679008,0)" xlink:href="#ao"/><use transform="matrix(0.0493827160493827,0,0,0.0493827160493827,93.67901234567897,0)" xlink:href="#Y"/><use transform="matrix(0.0493827160493827,0,0,0.0493827160493827,103.55555555555551,0)" xlink:href="#Z"/><use transform="matrix(0.0493827160493827,0,0,0.0493827160493827,109.43209876543206,0)" xlink:href="#aj"/><use transform="matrix(0.0493827160493827,0,0,0.0493827160493827,114.37037037037034,0)" xlink:href="#an"/><use transform="matrix(0.0493827160493827,0,0,0.0493827160493827,127.16049382716045,0)" xlink:href="#U"/><use transform="matrix(0.0493827160493827,0,0,0.0493827160493827,137.03703703703698,0)" xlink:href="#ac"/><use transform="matrix(0.0493827160493827,0,0,0.0493827160493827,141.97530864197526,0)" xlink:href="#U"/><use transform="matrix(0.0493827160493827,0,0,0.0493827160493827,151.8518518518518,0)" xlink:href="#al"/><use transform="matrix(0.0493827160493827,0,0,0.0493827160493827,164.64197530864192,0)" xlink:href="#Y"/><use transform="matrix(0.0493827160493827,0,0,0.0493827160493827,174.51851851851845,0)" xlink:href="#ac"/><use transform="matrix(0.0493827160493827,0,0,0.0493827160493827,179.45679012345673,0)" xlink:href="#Z"/><use transform="matrix(0.0493827160493827,0,0,0.0493827160493827,185.33333333333326,0)" xlink:href="#ab"/><use transform="matrix(0.0493827160493827,0,0,0.0493827160493827,189.2345679012345,0)" xlink:href="#Y"/><use transform="matrix(0.0493827160493827,0,0,0.0493827160493827,199.11111111111103,0)" xlink:href="#ao"/><use transform="matrix(0.0493827160493827,0,0,0.0493827160493827,207.99999999999994,0)" xlink:href="#Y"/><use transform="matrix(0.0493827160493827,0,0,0.0493827160493827,217.87654320987642,0)" xlink:href="#Z"/></g><path fill="#3a414a" d="M133-28C103 26-5 8 13-77c13-62 24-115 90-117 29-1 46 15 56 35l19-102h32L160 0h-30zM45-64c-2 27 10 43 35 43 54-1 69-50 69-103 0-29-15-46-42-46-53-1-58 58-62 106" id="be"/><path fill="#3a414a" d="M68-162c25-46 127-43 121 31C183-60 169 1 98 4 69 5 53-11 43-31L36 0H5l52-261h31zm88 36c2-27-9-43-34-43-55 0-70 51-70 103 0 29 15 45 43 46 52 0 58-58 61-106" id="bf"/><g id="J"><use transform="matrix(0.06172839506172839,0,0,0.06172839506172839,0,0)" xlink:href="#be"/><use transform="matrix(0.06172839506172839,0,0,0.06172839506172839,12.345679012345679,0)" xlink:href="#aJ"/><use transform="matrix(0.06172839506172839,0,0,0.06172839506172839,24.691358024691358,0)" xlink:href="#aI"/><use transform="matrix(0.06172839506172839,0,0,0.06172839506172839,30.864197530864196,0)" xlink:href="#aJ"/><use transform="matrix(0.06172839506172839,0,0,0.06172839506172839,43.20987654320987,0)" xlink:href="#aR"/><use transform="matrix(0.06172839506172839,0,0,0.06172839506172839,50.55555555555555,0)" xlink:href="#aL"/><use transform="matrix(0.06172839506172839,0,0,0.06172839506172839,69.01234567901234,0)" xlink:href="#aP"/><use transform="matrix(0.06172839506172839,0,0,0.06172839506172839,73.88888888888889,0)" xlink:href="#aQ"/><use transform="matrix(0.06172839506172839,0,0,0.06172839506172839,86.23456790123457,0)" xlink:href="#aJ"/><use transform="matrix(0.06172839506172839,0,0,0.06172839506172839,98.58024691358025,0)" xlink:href="#aK"/><use transform="matrix(0.06172839506172839,0,0,0.06172839506172839,110.92592592592594,0)" xlink:href="#bf"/><use transform="matrix(0.06172839506172839,0,0,0.06172839506172839,123.27160493827162,0)" xlink:href="#aH"/><use transform="matrix(0.06172839506172839,0,0,0.06172839506172839,135.6172839506173,0)" xlink:href="#aP"/><use transform="matrix(0.06172839506172839,0,0,0.06172839506172839,140.49382716049382,0)" xlink:href="#aG"/><use transform="matrix(0.06172839506172839,0,0,0.06172839506172839,145.37037037037035,0)" xlink:href="#be"/><use transform="matrix(0.06172839506172839,0,0,0.06172839506172839,157.71604938271602,0)" xlink:href="#aT"/><use transform="matrix(0.06172839506172839,0,0,0.06172839506172839,165.0617283950617,0)" xlink:href="#aU"/></g><g id="K"><use transform="matrix(0.06172839506172839,0,0,0.06172839506172839,0,0)" xlink:href="#P"/><use transform="matrix(0.06172839506172839,0,0,0.06172839506172839,14.814814814814813,0)" xlink:href="#Q"/><use transform="matrix(0.06172839506172839,0,0,0.06172839506172839,30.80246913580247,0)" xlink:href="#R"/><use transform="matrix(0.06172839506172839,0,0,0.06172839506172839,43.148148148148145,0)" xlink:href="#ba"/><use transform="matrix(0.06172839506172839,0,0,0.06172839506172839,57.96296296296296,0)" xlink:href="#af"/><use transform="matrix(0.06172839506172839,0,0,0.06172839506172839,70.30864197530865,0)" xlink:href="#ab"/><use transform="matrix(0.06172839506172839,0,0,0.06172839506172839,75.18518518518519,0)" xlink:href="#V"/><use transform="matrix(0.06172839506172839,0,0,0.06172839506172839,80.06172839506173,0)" xlink:href="#ag"/><use transform="matrix(0.06172839506172839,0,0,0.06172839506172839,92.40740740740742,0)" xlink:href="#bb"/><use transform="matrix(0.06172839506172839,0,0,0.06172839506172839,109.69135802469137,0)" xlink:href="#Z"/><use transform="matrix(0.06172839506172839,0,0,0.06172839506172839,117.03703703703705,0)" xlink:href="#ag"/><use transform="matrix(0.06172839506172839,0,0,0.06172839506172839,129.38271604938274,0)" xlink:href="#Y"/><use transform="matrix(0.06172839506172839,0,0,0.06172839506172839,141.7283950617284,0)" xlink:href="#Z"/><use transform="matrix(0.06172839506172839,0,0,0.06172839506172839,149.07407407407408,0)" xlink:href="#an"/><use transform="matrix(0.06172839506172839,0,0,0.06172839506172839,165.06172839506172,0)" xlink:href="#U"/><use transform="matrix(0.06172839506172839,0,0,0.06172839506172839,177.4074074074074,0)" xlink:href="#ac"/><use transform="matrix(0.06172839506172839,0,0,0.06172839506172839,183.58024691358023,0)" xlink:href="#U"/><use transform="matrix(0.06172839506172839,0,0,0.06172839506172839,195.9259259259259,0)" xlink:href="#al"/><use transform="matrix(0.06172839506172839,0,0,0.06172839506172839,211.91358024691354,0)" xlink:href="#Y"/><use transform="matrix(0.06172839506172839,0,0,0.06172839506172839,224.2592592592592,0)" xlink:href="#ac"/><use transform="matrix(0.06172839506172839,0,0,0.06172839506172839,230.43209876543204,0)" xlink:href="#Z"/><use transform="matrix(0.06172839506172839,0,0,0.06172839506172839,237.77777777777771,0)" xlink:href="#ab"/><use transform="matrix(0.06172839506172839,0,0,0.06172839506172839,242.65432098765424,0)" xlink:href="#Y"/><use transform="matrix(0.06172839506172839,0,0,0.06172839506172839,254.99999999999994,0)" xlink:href="#ao"/><use transform="matrix(0.06172839506172839,0,0,0.06172839506172839,266.11111111111103,0)" xlink:href="#Y"/><use transform="matrix(0.06172839506172839,0,0,0.06172839506172839,278.4567901234567,0)" xlink:href="#Z"/></g><g id="L"><use transform="matrix(0.055555555555555546,0,0,0.055555555555555546,0,0)" xlink:href="#ap"/><use transform="matrix(0.055555555555555546,0,0,0.055555555555555546,11.111111111111109,0)" xlink:href="#Y"/><use transform="matrix(0.055555555555555546,0,0,0.055555555555555546,22.222222222222218,0)" xlink:href="#ac"/><use transform="matrix(0.055555555555555546,0,0,0.055555555555555546,27.77777777777777,0)" xlink:href="#ad"/><use transform="matrix(0.055555555555555546,0,0,0.055555555555555546,38.88888888888888,0)" xlink:href="#ae"/><use transform="matrix(0.055555555555555546,0,0,0.055555555555555546,49.999999999999986,0)" xlink:href="#af"/><use transform="matrix(0.055555555555555546,0,0,0.055555555555555546,61.111111111111086,0)" xlink:href="#ab"/><use transform="matrix(0.055555555555555546,0,0,0.055555555555555546,65.49999999999999,0)" xlink:href="#V"/><use transform="matrix(0.055555555555555546,0,0,0.055555555555555546,69.88888888888887,0)" xlink:href="#ag"/><use transform="matrix(0.055555555555555546,0,0,0.055555555555555546,80.99999999999999,0)" xlink:href="#ad"/><use transform="matrix(0.055555555555555546,0,0,0.055555555555555546,92.1111111111111,0)" xlink:href="#ae"/><use transform="matrix(0.055555555555555546,0,0,0.055555555555555546,103.22222222222221,0)" xlink:href="#W"/><use transform="matrix(0.055555555555555546,0,0,0.055555555555555546,113.22222222222221,0)" xlink:href="#ad"/><use transform="matrix(0.055555555555555546,0,0,0.055555555555555546,124.33333333333334,0)" xlink:href="#T"/><use transform="matrix(0.055555555555555546,0,0,0.055555555555555546,135.44444444444443,0)" xlink:href="#U"/><use transform="matrix(0.055555555555555546,0,0,0.055555555555555546,146.55555555555554,0)" xlink:href="#aq"/><use transform="matrix(0.055555555555555546,0,0,0.055555555555555546,163.16666666666666,0)" xlink:href="#Y"/><use transform="matrix(0.055555555555555546,0,0,0.055555555555555546,174.27777777777777,0)" xlink:href="#ah"/><use transform="matrix(0.055555555555555546,0,0,0.055555555555555546,180.88888888888889,0)" xlink:href="#ae"/><use transform="matrix(0.055555555555555546,0,0,0.055555555555555546,192,0)" xlink:href="#af"/><use transform="matrix(0.055555555555555546,0,0,0.055555555555555546,203.11111111111111,0)" xlink:href="#ab"/><use transform="matrix(0.055555555555555546,0,0,0.055555555555555546,207.5,0)" xlink:href="#V"/><use transform="matrix(0.055555555555555546,0,0,0.055555555555555546,211.88888888888889,0)" xlink:href="#ag"/><use transform="matrix(0.055555555555555546,0,0,0.055555555555555546,223,0)" xlink:href="#ad"/><use transform="matrix(0.055555555555555546,0,0,0.055555555555555546,234.11111111111111,0)" xlink:href="#T"/><use transform="matrix(0.055555555555555546,0,0,0.055555555555555546,245.22222222222223,0)" xlink:href="#U"/><use transform="matrix(0.055555555555555546,0,0,0.055555555555555546,256.3333333333333,0)" xlink:href="#aq"/><use transform="matrix(0.055555555555555546,0,0,0.055555555555555546,272.9444444444444,0)" xlink:href="#Y"/><use transform="matrix(0.055555555555555546,0,0,0.055555555555555546,284.0555555555555,0)" xlink:href="#aj"/><use transform="matrix(0.055555555555555546,0,0,0.055555555555555546,289.61111111111103,0)" xlink:href="#as"/><use transform="matrix(0.055555555555555546,0,0,0.055555555555555546,299.61111111111103,0)" xlink:href="#ac"/><use transform="matrix(0.055555555555555546,0,0,0.055555555555555546,305.1666666666666,0)" xlink:href="#Z"/><use transform="matrix(0.055555555555555546,0,0,0.055555555555555546,311.77777777777766,0)" xlink:href="#ai"/></g><g id="M"><use transform="matrix(0.06172839506172839,0,0,0.06172839506172839,0,0)" xlink:href="#ap"/><use transform="matrix(0.06172839506172839,0,0,0.06172839506172839,12.345679012345679,0)" xlink:href="#Y"/><use transform="matrix(0.06172839506172839,0,0,0.06172839506172839,24.691358024691358,0)" xlink:href="#ac"/><use transform="matrix(0.06172839506172839,0,0,0.06172839506172839,30.864197530864196,0)" xlink:href="#ad"/><use transform="matrix(0.06172839506172839,0,0,0.06172839506172839,43.20987654320987,0)" xlink:href="#ae"/><use transform="matrix(0.06172839506172839,0,0,0.06172839506172839,55.55555555555555,0)" xlink:href="#af"/><use transform="matrix(0.06172839506172839,0,0,0.06172839506172839,67.90123456790123,0)" xlink:href="#ab"/><use transform="matrix(0.06172839506172839,0,0,0.06172839506172839,72.77777777777777,0)" xlink:href="#V"/><use transform="matrix(0.06172839506172839,0,0,0.06172839506172839,77.65432098765432,0)" xlink:href="#ag"/><use transform="matrix(0.06172839506172839,0,0,0.06172839506172839,90,0)" xlink:href="#ad"/><use transform="matrix(0.06172839506172839,0,0,0.06172839506172839,102.34567901234568,0)" xlink:href="#ae"/><use transform="matrix(0.06172839506172839,0,0,0.06172839506172839,114.69135802469137,0)" xlink:href="#W"/><use transform="matrix(0.06172839506172839,0,0,0.06172839506172839,125.80246913580248,0)" xlink:href="#ad"/><use transform="matrix(0.06172839506172839,0,0,0.06172839506172839,138.14814814814815,0)" xlink:href="#Z"/><use transform="matrix(0.06172839506172839,0,0,0.06172839506172839,145.49382716049382,0)" xlink:href="#U"/><use transform="matrix(0.06172839506172839,0,0,0.06172839506172839,157.8395061728395,0)" xlink:href="#ak"/><use transform="matrix(0.06172839506172839,0,0,0.06172839506172839,168.9506172839506,0)" xlink:href="#Y"/><use transform="matrix(0.06172839506172839,0,0,0.06172839506172839,181.29629629629628,0)" xlink:href="#ah"/><use transform="matrix(0.06172839506172839,0,0,0.06172839506172839,188.64197530864195,0)" xlink:href="#Z"/><use transform="matrix(0.06172839506172839,0,0,0.06172839506172839,195.98765432098762,0)" xlink:href="#U"/><use transform="matrix(0.06172839506172839,0,0,0.06172839506172839,208.3333333333333,0)" xlink:href="#ak"/><use transform="matrix(0.06172839506172839,0,0,0.06172839506172839,219.4444444444444,0)" xlink:href="#Y"/><use transform="matrix(0.06172839506172839,0,0,0.06172839506172839,231.79012345679007,0)" xlink:href="#aj"/><use transform="matrix(0.06172839506172839,0,0,0.06172839506172839,237.9629629629629,0)" xlink:href="#as"/><use transform="matrix(0.06172839506172839,0,0,0.06172839506172839,249.07407407407402,0)" xlink:href="#ac"/><use transform="matrix(0.06172839506172839,0,0,0.06172839506172839,255.24691358024685,0)" xlink:href="#Z"/><use transform="matrix(0.06172839506172839,0,0,0.06172839506172839,262.59259259259255,0)" xlink:href="#ai"/></g><g id="N"><use transform="matrix(0.06172839506172839,0,0,0.06172839506172839,0,0)" xlink:href="#ap"/><use transform="matrix(0.06172839506172839,0,0,0.06172839506172839,12.345679012345679,0)" xlink:href="#Y"/><use transform="matrix(0.06172839506172839,0,0,0.06172839506172839,24.691358024691358,0)" xlink:href="#ac"/><use transform="matrix(0.06172839506172839,0,0,0.06172839506172839,30.864197530864196,0)" xlink:href="#ad"/><use transform="matrix(0.06172839506172839,0,0,0.06172839506172839,43.20987654320987,0)" xlink:href="#U"/><use transform="matrix(0.06172839506172839,0,0,0.06172839506172839,55.55555555555555,0)" xlink:href="#V"/><use transform="matrix(0.06172839506172839,0,0,0.06172839506172839,60.432098765432094,0)" xlink:href="#V"/><use transform="matrix(0.06172839506172839,0,0,0.06172839506172839,65.30864197530863,0)" xlink:href="#ad"/><use transform="matrix(0.06172839506172839,0,0,0.06172839506172839,77.65432098765432,0)" xlink:href="#ae"/><use transform="matrix(0.06172839506172839,0,0,0.06172839506172839,90,0)" xlink:href="#af"/><use transform="matrix(0.06172839506172839,0,0,0.06172839506172839,102.34567901234568,0)" xlink:href="#ab"/><use transform="matrix(0.06172839506172839,0,0,0.06172839506172839,107.22222222222223,0)" xlink:href="#V"/><use transform="matrix(0.06172839506172839,0,0,0.06172839506172839,112.09876543209877,0)" xlink:href="#ag"/><use transform="matrix(0.06172839506172839,0,0,0.06172839506172839,124.44444444444446,0)" xlink:href="#as"/><use transform="matrix(0.06172839506172839,0,0,0.06172839506172839,135.55555555555557,0)" xlink:href="#ah"/><use transform="matrix(0.06172839506172839,0,0,0.06172839506172839,142.90123456790124,0)" xlink:href="#ai"/></g></defs></g></svg>